G04 EAGLE Gerber RS-274X export*
G75*
%MOMM*%
%FSLAX34Y34*%
%LPD*%
%INMechanical*%
%IPPOS*%
%AMOC8*
5,1,8,0,0,1.08239X$1,22.5*%
G01*
%ADD10C,0.001000*%
%ADD11C,0.000000*%
%ADD12C,0.254000*%


D10*
X767380Y748707D02*
X596777Y1142947D01*
X596737Y1143033D01*
X596694Y1143119D01*
X596647Y1143202D01*
X596597Y1143283D01*
X596543Y1143362D01*
X596487Y1143439D01*
X596427Y1143513D01*
X596364Y1143585D01*
X596298Y1143655D01*
X596230Y1143721D01*
X596159Y1143785D01*
X596085Y1143845D01*
X596009Y1143903D01*
X595930Y1143957D01*
X595849Y1144008D01*
X595767Y1144056D01*
X595682Y1144100D01*
X595596Y1144141D01*
X595508Y1144178D01*
X595418Y1144211D01*
X595327Y1144241D01*
X595235Y1144267D01*
X595143Y1144289D01*
X595049Y1144307D01*
X594954Y1144321D01*
X594860Y1144332D01*
X594764Y1144338D01*
X594669Y1144341D01*
X594573Y1144340D01*
X594478Y1144334D01*
X594383Y1144325D01*
X594288Y1144312D01*
X594194Y1144295D01*
X594101Y1144274D01*
X594009Y1144249D01*
X593918Y1144221D01*
X593828Y1144188D01*
X593740Y1144153D01*
X593653Y1144113D01*
X593567Y1144070D01*
X593484Y1144023D01*
X593403Y1143973D01*
X593323Y1143920D01*
X593247Y1143863D01*
X593172Y1143804D01*
X593100Y1143741D01*
X593031Y1143676D01*
X592964Y1143607D01*
X592900Y1143536D01*
X592839Y1143462D01*
X592782Y1143386D01*
X592727Y1143308D01*
X592676Y1143227D01*
X592628Y1143145D01*
X592584Y1143060D01*
X592543Y1142974D01*
X592506Y1142886D01*
X433200Y743945D01*
X5663Y703530D01*
X5568Y703520D01*
X5473Y703505D01*
X5379Y703486D01*
X5286Y703464D01*
X5193Y703437D01*
X5102Y703407D01*
X5012Y703374D01*
X4924Y703336D01*
X4837Y703296D01*
X4752Y703251D01*
X4668Y703204D01*
X4587Y703153D01*
X4508Y703098D01*
X4431Y703041D01*
X4357Y702980D01*
X4285Y702917D01*
X4215Y702850D01*
X4149Y702781D01*
X4085Y702709D01*
X4024Y702635D01*
X3967Y702558D01*
X3912Y702479D01*
X3861Y702398D01*
X3813Y702315D01*
X3768Y702230D01*
X3727Y702143D01*
X3690Y702055D01*
X3656Y701965D01*
X3626Y701874D01*
X3599Y701782D01*
X3576Y701688D01*
X3557Y701594D01*
X3542Y701500D01*
X3531Y701404D01*
X3524Y701309D01*
X3520Y701213D01*
X3521Y701117D01*
X3525Y701021D01*
X3533Y700925D01*
X3545Y700830D01*
X3561Y700735D01*
X3581Y700641D01*
X3605Y700548D01*
X3632Y700456D01*
X3663Y700365D01*
X3698Y700276D01*
X3736Y700188D01*
X3778Y700101D01*
X3823Y700017D01*
X3872Y699934D01*
X3924Y699853D01*
X3979Y699775D01*
X4037Y699699D01*
X4099Y699625D01*
X4163Y699554D01*
X4230Y699485D01*
X4300Y699419D01*
X4373Y699356D01*
X4372Y699356D02*
X334466Y424653D01*
X239866Y1453D01*
X239857Y1405D01*
X239852Y1357D01*
X239851Y1308D01*
X239854Y1260D01*
X239860Y1212D01*
X239870Y1165D01*
X239884Y1118D01*
X239902Y1073D01*
X239923Y1029D01*
X239947Y987D01*
X239974Y947D01*
X240005Y910D01*
X240038Y875D01*
X240074Y842D01*
X240113Y813D01*
X240154Y787D01*
X240196Y763D01*
X240240Y744D01*
X240286Y728D01*
X240333Y715D01*
X240381Y706D01*
X240429Y701D01*
X240477Y700D01*
X240526Y703D01*
X240574Y709D01*
X240621Y719D01*
X240668Y733D01*
X240713Y750D01*
X240757Y771D01*
X240799Y795D01*
X607616Y232081D01*
X978645Y12656D01*
X978716Y12616D01*
X978789Y12580D01*
X978864Y12547D01*
X978940Y12518D01*
X979017Y12493D01*
X979095Y12471D01*
X979175Y12453D01*
X979255Y12439D01*
X979336Y12429D01*
X979417Y12422D01*
X979498Y12420D01*
X979580Y12422D01*
X979661Y12427D01*
X979742Y12436D01*
X979822Y12449D01*
X979902Y12466D01*
X979980Y12487D01*
X980058Y12512D01*
X980134Y12540D01*
X980209Y12572D01*
X980282Y12607D01*
X980354Y12646D01*
X980423Y12688D01*
X980491Y12734D01*
X980556Y12783D01*
X980619Y12835D01*
X980679Y12889D01*
X980736Y12947D01*
X980791Y13007D01*
X980843Y13070D01*
X980891Y13136D01*
X980937Y13203D01*
X980979Y13273D01*
X981018Y13344D01*
X981053Y13418D01*
X981085Y13493D01*
X981113Y13569D01*
X981137Y13647D01*
X981158Y13726D01*
X981174Y13805D01*
X981187Y13886D01*
X981196Y13966D01*
X981202Y14048D01*
X981203Y14129D01*
X981200Y14210D01*
X981194Y14292D01*
X981183Y14372D01*
X981169Y14452D01*
X981151Y14532D01*
X981150Y14532D02*
X875170Y432359D01*
X1195568Y714823D01*
X1195652Y714899D01*
X1195734Y714979D01*
X1195812Y715061D01*
X1195888Y715145D01*
X1195960Y715233D01*
X1196030Y715322D01*
X1196097Y715414D01*
X1196160Y715508D01*
X1196220Y715605D01*
X1196277Y715703D01*
X1196330Y715803D01*
X1196380Y715905D01*
X1196427Y716009D01*
X1196470Y716114D01*
X1196509Y716220D01*
X1196545Y716328D01*
X1196577Y716437D01*
X1196605Y716547D01*
X1196629Y716658D01*
X1196650Y716769D01*
X1196667Y716882D01*
X1196680Y716995D01*
X1196689Y717108D01*
X1196695Y717221D01*
X1196696Y717335D01*
X1196694Y717448D01*
X1196687Y717562D01*
X1196677Y717675D01*
X1196663Y717787D01*
X1196645Y717899D01*
X1196624Y718011D01*
X1196598Y718121D01*
X1196569Y718231D01*
X1196536Y718340D01*
X1196499Y718447D01*
X1196459Y718553D01*
X1196415Y718658D01*
X1196368Y718761D01*
X1196317Y718863D01*
X1196263Y718962D01*
X1196205Y719060D01*
X1196144Y719156D01*
X1196080Y719250D01*
X1196012Y719341D01*
X1195942Y719430D01*
X1195868Y719517D01*
X1195792Y719601D01*
X1195713Y719682D01*
X1195631Y719761D01*
X1195546Y719836D01*
X1195459Y719909D01*
X1195370Y719979D01*
X1195278Y720046D01*
X1195184Y720109D01*
X1195088Y720170D01*
X1194990Y720227D01*
X1194890Y720280D01*
X1194788Y720331D01*
X1194684Y720377D01*
X1194579Y720420D01*
X1194473Y720460D01*
X1194365Y720496D01*
X1194256Y720528D01*
X1194146Y720557D01*
X1194035Y720581D01*
X1193924Y720602D01*
X1193812Y720619D01*
X1193699Y720632D01*
X1193586Y720642D01*
X1193585Y720642D02*
X767380Y748707D01*
X596777Y1142947D01*
X596737Y1143033D01*
X596694Y1143119D01*
X596647Y1143202D01*
X596597Y1143283D01*
X596543Y1143362D01*
X596487Y1143439D01*
X596427Y1143513D01*
X596364Y1143585D01*
X596298Y1143655D01*
X596230Y1143721D01*
X596159Y1143785D01*
X596085Y1143845D01*
X596009Y1143903D01*
X595930Y1143957D01*
X595849Y1144008D01*
X595767Y1144056D01*
X595682Y1144100D01*
X595596Y1144141D01*
X595508Y1144178D01*
X595418Y1144211D01*
X595327Y1144241D01*
X595235Y1144267D01*
X595143Y1144289D01*
X595049Y1144307D01*
X594954Y1144321D01*
X594860Y1144332D01*
X594764Y1144338D01*
X594669Y1144341D01*
X594573Y1144340D01*
X594478Y1144334D01*
X594383Y1144325D01*
X594288Y1144312D01*
X594194Y1144295D01*
X594101Y1144274D01*
X594009Y1144249D01*
X593918Y1144221D01*
X593828Y1144188D01*
X593740Y1144153D01*
X593653Y1144113D01*
X593567Y1144070D01*
X593484Y1144023D01*
X593403Y1143973D01*
X593323Y1143920D01*
X593247Y1143863D01*
X593172Y1143804D01*
X593100Y1143741D01*
X593031Y1143676D01*
X592964Y1143607D01*
X592900Y1143536D01*
X592839Y1143462D01*
X592782Y1143386D01*
X592727Y1143308D01*
X592676Y1143227D01*
X592628Y1143145D01*
X592584Y1143060D01*
X592543Y1142974D01*
X592506Y1142886D01*
X433200Y743945D01*
X5663Y703530D01*
X5568Y703520D01*
X5473Y703505D01*
X5379Y703486D01*
X5286Y703464D01*
X5193Y703437D01*
X5102Y703407D01*
X5012Y703374D01*
X4924Y703336D01*
X4837Y703296D01*
X4752Y703251D01*
X4668Y703204D01*
X4587Y703153D01*
X4508Y703098D01*
X4431Y703041D01*
X4357Y702980D01*
X4285Y702917D01*
X4215Y702850D01*
X4149Y702781D01*
X4085Y702709D01*
X4024Y702635D01*
X3967Y702558D01*
X3912Y702479D01*
X3861Y702398D01*
X3813Y702315D01*
X3768Y702230D01*
X3727Y702143D01*
X3690Y702055D01*
X3656Y701965D01*
X3626Y701874D01*
X3599Y701782D01*
X3576Y701688D01*
X3557Y701594D01*
X3542Y701500D01*
X3531Y701404D01*
X3524Y701309D01*
X3520Y701213D01*
X3521Y701117D01*
X3525Y701021D01*
X3533Y700925D01*
X3545Y700830D01*
X3561Y700735D01*
X3581Y700641D01*
X3605Y700548D01*
X3632Y700456D01*
X3663Y700365D01*
X3698Y700276D01*
X3736Y700188D01*
X3778Y700101D01*
X3823Y700017D01*
X3872Y699934D01*
X3924Y699853D01*
X3979Y699775D01*
X4037Y699699D01*
X4099Y699625D01*
X4163Y699554D01*
X4230Y699485D01*
X4300Y699419D01*
X4373Y699356D01*
X4372Y699356D02*
X334466Y424653D01*
X239866Y1453D01*
X239857Y1405D01*
X239852Y1357D01*
X239851Y1308D01*
X239854Y1260D01*
X239860Y1212D01*
X239870Y1165D01*
X239884Y1118D01*
X239902Y1073D01*
X239923Y1029D01*
X239947Y987D01*
X239974Y947D01*
X240005Y910D01*
X240038Y875D01*
X240074Y842D01*
X240113Y813D01*
X240154Y787D01*
X240196Y763D01*
X240240Y744D01*
X240286Y728D01*
X240333Y715D01*
X240381Y706D01*
X240429Y701D01*
X240477Y700D01*
X240526Y703D01*
X240574Y709D01*
X240621Y719D01*
X240668Y733D01*
X240713Y750D01*
X240757Y771D01*
X240799Y795D01*
X607616Y232081D01*
X978645Y12656D01*
X978716Y12616D01*
X978789Y12580D01*
X978864Y12547D01*
X978940Y12518D01*
X979017Y12493D01*
X979095Y12471D01*
X979175Y12453D01*
X979255Y12439D01*
X979336Y12429D01*
X979417Y12422D01*
X979498Y12420D01*
X979580Y12422D01*
X979661Y12427D01*
X979742Y12436D01*
X979822Y12449D01*
X979902Y12466D01*
X979980Y12487D01*
X980058Y12512D01*
X980134Y12540D01*
X980209Y12572D01*
X980282Y12607D01*
X980354Y12646D01*
X980423Y12688D01*
X980491Y12734D01*
X980556Y12783D01*
X980619Y12835D01*
X980679Y12889D01*
X980736Y12947D01*
X980791Y13007D01*
X980843Y13070D01*
X980891Y13136D01*
X980937Y13203D01*
X980979Y13273D01*
X981018Y13344D01*
X981053Y13418D01*
X981085Y13493D01*
X981113Y13569D01*
X981137Y13647D01*
X981158Y13726D01*
X981174Y13805D01*
X981187Y13886D01*
X981196Y13966D01*
X981202Y14048D01*
X981203Y14129D01*
X981200Y14210D01*
X981194Y14292D01*
X981183Y14372D01*
X981169Y14452D01*
X981151Y14532D01*
X981150Y14532D02*
X875170Y432359D01*
X1195568Y714823D01*
X1195652Y714899D01*
X1195734Y714979D01*
X1195812Y715061D01*
X1195888Y715145D01*
X1195960Y715233D01*
X1196030Y715322D01*
X1196097Y715414D01*
X1196160Y715508D01*
X1196220Y715605D01*
X1196277Y715703D01*
X1196330Y715803D01*
X1196380Y715905D01*
X1196427Y716009D01*
X1196470Y716114D01*
X1196509Y716220D01*
X1196545Y716328D01*
X1196577Y716437D01*
X1196605Y716547D01*
X1196629Y716658D01*
X1196650Y716769D01*
X1196667Y716882D01*
X1196680Y716995D01*
X1196689Y717108D01*
X1196695Y717221D01*
X1196696Y717335D01*
X1196694Y717448D01*
X1196687Y717562D01*
X1196677Y717675D01*
X1196663Y717787D01*
X1196645Y717899D01*
X1196624Y718011D01*
X1196598Y718121D01*
X1196569Y718231D01*
X1196536Y718340D01*
X1196499Y718447D01*
X1196459Y718553D01*
X1196415Y718658D01*
X1196368Y718761D01*
X1196317Y718863D01*
X1196263Y718962D01*
X1196205Y719060D01*
X1196144Y719156D01*
X1196080Y719250D01*
X1196012Y719341D01*
X1195942Y719430D01*
X1195868Y719517D01*
X1195792Y719601D01*
X1195713Y719682D01*
X1195631Y719761D01*
X1195546Y719836D01*
X1195459Y719909D01*
X1195370Y719979D01*
X1195278Y720046D01*
X1195184Y720109D01*
X1195088Y720170D01*
X1194990Y720227D01*
X1194890Y720280D01*
X1194788Y720331D01*
X1194684Y720377D01*
X1194579Y720420D01*
X1194473Y720460D01*
X1194365Y720496D01*
X1194256Y720528D01*
X1194146Y720557D01*
X1194035Y720581D01*
X1193924Y720602D01*
X1193812Y720619D01*
X1193699Y720632D01*
X1193586Y720642D01*
X1193585Y720642D02*
X767380Y748707D01*
D11*
X572700Y334900D02*
X562700Y334900D01*
X562700Y350900D01*
X572700Y350900D01*
X572700Y334900D01*
X528700Y317900D02*
X528700Y307900D01*
X512700Y307900D01*
X512700Y317900D01*
X528700Y317900D01*
X528700Y367900D02*
X528700Y377900D01*
X528700Y367900D02*
X512700Y367900D01*
X512700Y377900D01*
X528700Y377900D01*
D12*
X4372Y699356D02*
X334466Y424653D01*
X239866Y1453D01*
X239856Y1400D01*
X239852Y1346D01*
X239851Y1292D01*
X239856Y1238D01*
X239865Y1185D01*
X239879Y1133D01*
X239898Y1082D01*
X239920Y1034D01*
X239947Y987D01*
X239978Y943D01*
X240013Y901D01*
X240051Y863D01*
X240092Y828D01*
X240136Y797D01*
X240183Y770D01*
X240231Y747D01*
X240282Y729D01*
X240334Y715D01*
X240387Y705D01*
X240441Y701D01*
X240495Y700D01*
X240549Y705D01*
X240602Y714D01*
X240654Y728D01*
X240704Y747D01*
X240753Y769D01*
X240799Y795D01*
X607616Y232081D01*
X978645Y12656D01*
X978775Y12587D01*
X978911Y12529D01*
X979052Y12483D01*
X979196Y12449D01*
X979342Y12429D01*
X979490Y12421D01*
X979638Y12425D01*
X979784Y12443D01*
X979929Y12474D01*
X980070Y12517D01*
X980208Y12572D01*
X980340Y12639D01*
X980465Y12717D01*
X980583Y12806D01*
X980693Y12904D01*
X980794Y13012D01*
X980886Y13129D01*
X980966Y13253D01*
X981036Y13383D01*
X981094Y13519D01*
X981140Y13660D01*
X981173Y13804D01*
X981194Y13950D01*
X981202Y14098D01*
X981197Y14245D01*
X981180Y14392D01*
X981150Y14532D01*
X875170Y432359D01*
X1195568Y714823D01*
X1195777Y715024D01*
X1195968Y715243D01*
X1196140Y715477D01*
X1196290Y715726D01*
X1196417Y715987D01*
X1196522Y716258D01*
X1196602Y716537D01*
X1196658Y716822D01*
X1196689Y717111D01*
X1196695Y717401D01*
X1196675Y717691D01*
X1196630Y717978D01*
X1196560Y718260D01*
X1196466Y718534D01*
X1196349Y718800D01*
X1196208Y719054D01*
X1196046Y719295D01*
X1195864Y719521D01*
X1195662Y719731D01*
X1195444Y719922D01*
X1195209Y720093D01*
X1194960Y720243D01*
X1194699Y720370D01*
X1194428Y720475D01*
X1194149Y720556D01*
X1193864Y720611D01*
X1193585Y720642D01*
X767380Y748707D01*
X596777Y1142947D01*
X596689Y1143129D01*
X596586Y1143302D01*
X596467Y1143465D01*
X596335Y1143618D01*
X596190Y1143758D01*
X596034Y1143885D01*
X595866Y1143999D01*
X595690Y1144097D01*
X595506Y1144179D01*
X595315Y1144245D01*
X595119Y1144294D01*
X594920Y1144326D01*
X594719Y1144341D01*
X594517Y1144338D01*
X594316Y1144317D01*
X594118Y1144279D01*
X593924Y1144223D01*
X593735Y1144151D01*
X593554Y1144063D01*
X593381Y1143960D01*
X593217Y1143841D01*
X593065Y1143709D01*
X592924Y1143564D01*
X592797Y1143407D01*
X592684Y1143240D01*
X592586Y1143064D01*
X592506Y1142886D01*
X433200Y743945D01*
X5663Y703530D01*
X5459Y703502D01*
X5258Y703456D01*
X5061Y703392D01*
X4871Y703312D01*
X4689Y703215D01*
X4515Y703103D01*
X4352Y702977D01*
X4201Y702836D01*
X4063Y702683D01*
X3938Y702518D01*
X3829Y702343D01*
X3735Y702160D01*
X3657Y701968D01*
X3596Y701771D01*
X3553Y701569D01*
X3527Y701365D01*
X3520Y701158D01*
X3530Y700952D01*
X3559Y700748D01*
X3605Y700547D01*
X3668Y700350D01*
X3749Y700160D01*
X3845Y699978D01*
X3957Y699804D01*
X4084Y699641D01*
X4225Y699490D01*
X4372Y699356D01*
X512700Y367900D02*
X528700Y367900D01*
X528700Y377900D01*
X512700Y377900D01*
X512700Y367900D01*
X512700Y307900D02*
X528700Y307900D01*
X528700Y317900D01*
X512700Y317900D01*
X512700Y307900D01*
X562700Y334900D02*
X572700Y334900D01*
X572700Y350900D01*
X562700Y350900D01*
X562700Y334900D01*
X4372Y699356D02*
X334466Y424653D01*
X239866Y1453D01*
X239856Y1400D01*
X239852Y1346D01*
X239851Y1292D01*
X239856Y1238D01*
X239865Y1185D01*
X239879Y1133D01*
X239898Y1083D01*
X239920Y1034D01*
X239947Y987D01*
X239978Y943D01*
X240013Y901D01*
X240051Y863D01*
X240092Y828D01*
X240136Y797D01*
X240183Y770D01*
X240231Y747D01*
X240282Y729D01*
X240334Y715D01*
X240387Y705D01*
X240441Y701D01*
X240495Y700D01*
X240549Y705D01*
X240602Y714D01*
X240654Y728D01*
X240704Y747D01*
X240753Y769D01*
X240799Y795D01*
X607616Y232081D01*
X978645Y12656D01*
X978775Y12587D01*
X978911Y12529D01*
X979052Y12483D01*
X979196Y12449D01*
X979342Y12429D01*
X979490Y12421D01*
X979638Y12425D01*
X979784Y12443D01*
X979929Y12474D01*
X980070Y12517D01*
X980208Y12572D01*
X980340Y12639D01*
X980465Y12717D01*
X980583Y12806D01*
X980693Y12904D01*
X980794Y13012D01*
X980886Y13129D01*
X980966Y13253D01*
X981036Y13383D01*
X981094Y13519D01*
X981140Y13660D01*
X981173Y13804D01*
X981194Y13950D01*
X981202Y14098D01*
X981197Y14245D01*
X981180Y14392D01*
X981150Y14532D01*
X875170Y432359D01*
X1195568Y714823D01*
X1195777Y715024D01*
X1195968Y715243D01*
X1196140Y715477D01*
X1196290Y715726D01*
X1196417Y715987D01*
X1196522Y716258D01*
X1196602Y716537D01*
X1196658Y716822D01*
X1196689Y717111D01*
X1196695Y717401D01*
X1196675Y717691D01*
X1196630Y717978D01*
X1196560Y718260D01*
X1196466Y718534D01*
X1196349Y718800D01*
X1196208Y719054D01*
X1196046Y719295D01*
X1195864Y719521D01*
X1195662Y719731D01*
X1195444Y719922D01*
X1195209Y720093D01*
X1194960Y720243D01*
X1194699Y720370D01*
X1194428Y720475D01*
X1194149Y720556D01*
X1193864Y720611D01*
X1193585Y720642D01*
X767380Y748707D01*
X596777Y1142947D01*
X596689Y1143129D01*
X596586Y1143302D01*
X596467Y1143465D01*
X596335Y1143618D01*
X596190Y1143758D01*
X596034Y1143885D01*
X595866Y1143999D01*
X595690Y1144097D01*
X595506Y1144179D01*
X595315Y1144245D01*
X595119Y1144294D01*
X594920Y1144326D01*
X594719Y1144341D01*
X594517Y1144338D01*
X594316Y1144317D01*
X594118Y1144279D01*
X593924Y1144223D01*
X593735Y1144151D01*
X593554Y1144063D01*
X593381Y1143960D01*
X593217Y1143841D01*
X593065Y1143709D01*
X592924Y1143564D01*
X592797Y1143407D01*
X592684Y1143240D01*
X592586Y1143064D01*
X592506Y1142886D01*
X433200Y743945D01*
X5663Y703530D01*
X5459Y703502D01*
X5258Y703456D01*
X5061Y703392D01*
X4871Y703312D01*
X4689Y703215D01*
X4515Y703103D01*
X4352Y702977D01*
X4201Y702836D01*
X4063Y702683D01*
X3938Y702518D01*
X3829Y702343D01*
X3735Y702160D01*
X3657Y701968D01*
X3596Y701771D01*
X3553Y701569D01*
X3527Y701365D01*
X3520Y701158D01*
X3530Y700952D01*
X3559Y700748D01*
X3605Y700547D01*
X3668Y700350D01*
X3749Y700160D01*
X3845Y699978D01*
X3957Y699804D01*
X4084Y699641D01*
X4225Y699490D01*
X4372Y699356D01*
M02*
