G04 EAGLE Gerber RS-274X export*
G75*
%MOMM*%
%FSLAX34Y34*%
%LPD*%
%INSoldermask Bottom*%
%IPPOS*%
%AMOC8*
5,1,8,0,0,1.08239X$1,22.5*%
G01*
%ADD10C,0.001000*%
%ADD11P,1.539592X8X292.500000*%
%ADD12P,1.539592X8X112.500000*%
%ADD13C,1.981200*%
%ADD14R,1.609600X1.609600*%
%ADD15C,1.609600*%
%ADD16C,1.159600*%
%ADD17R,1.409600X1.409600*%
%ADD18C,1.409600*%
%ADD19C,1.609600*%
%ADD20P,2.859241X8X202.500000*%
%ADD21R,2.514600X2.514600*%
%ADD22C,2.514600*%
%ADD23C,1.625600*%
%ADD24R,2.133600X2.133600*%
%ADD25C,2.133600*%
%ADD26P,1.842011X8X292.500000*%
%ADD27C,1.701800*%
%ADD28C,1.309600*%
%ADD29C,2.501600*%
%ADD30P,1.539592X8X278.500000*%
%ADD31P,1.539592X8X202.500000*%
%ADD32P,1.539592X8X130.500000*%
%ADD33P,1.539592X8X58.500000*%
%ADD34P,1.539592X8X346.500000*%


D10*
X767380Y748707D02*
X596777Y1142947D01*
X596737Y1143033D01*
X596694Y1143119D01*
X596647Y1143202D01*
X596597Y1143283D01*
X596543Y1143362D01*
X596487Y1143439D01*
X596427Y1143513D01*
X596364Y1143585D01*
X596298Y1143655D01*
X596230Y1143721D01*
X596159Y1143785D01*
X596085Y1143845D01*
X596009Y1143903D01*
X595930Y1143957D01*
X595849Y1144008D01*
X595767Y1144056D01*
X595682Y1144100D01*
X595596Y1144141D01*
X595508Y1144178D01*
X595418Y1144211D01*
X595327Y1144241D01*
X595235Y1144267D01*
X595143Y1144289D01*
X595049Y1144307D01*
X594954Y1144321D01*
X594860Y1144332D01*
X594764Y1144338D01*
X594669Y1144341D01*
X594573Y1144340D01*
X594478Y1144334D01*
X594383Y1144325D01*
X594288Y1144312D01*
X594194Y1144295D01*
X594101Y1144274D01*
X594009Y1144249D01*
X593918Y1144221D01*
X593828Y1144188D01*
X593740Y1144153D01*
X593653Y1144113D01*
X593567Y1144070D01*
X593484Y1144023D01*
X593403Y1143973D01*
X593323Y1143920D01*
X593247Y1143863D01*
X593172Y1143804D01*
X593100Y1143741D01*
X593031Y1143676D01*
X592964Y1143607D01*
X592900Y1143536D01*
X592839Y1143462D01*
X592782Y1143386D01*
X592727Y1143308D01*
X592676Y1143227D01*
X592628Y1143145D01*
X592584Y1143060D01*
X592543Y1142974D01*
X592506Y1142886D01*
X433200Y743945D01*
X5663Y703530D01*
X5568Y703520D01*
X5473Y703505D01*
X5379Y703486D01*
X5286Y703464D01*
X5193Y703437D01*
X5102Y703407D01*
X5012Y703374D01*
X4924Y703336D01*
X4837Y703296D01*
X4752Y703251D01*
X4668Y703204D01*
X4587Y703153D01*
X4508Y703098D01*
X4431Y703041D01*
X4357Y702980D01*
X4285Y702917D01*
X4215Y702850D01*
X4149Y702781D01*
X4085Y702709D01*
X4024Y702635D01*
X3967Y702558D01*
X3912Y702479D01*
X3861Y702398D01*
X3813Y702315D01*
X3768Y702230D01*
X3727Y702143D01*
X3690Y702055D01*
X3656Y701965D01*
X3626Y701874D01*
X3599Y701782D01*
X3576Y701688D01*
X3557Y701594D01*
X3542Y701500D01*
X3531Y701404D01*
X3524Y701309D01*
X3520Y701213D01*
X3521Y701117D01*
X3525Y701021D01*
X3533Y700925D01*
X3545Y700830D01*
X3561Y700735D01*
X3581Y700641D01*
X3605Y700548D01*
X3632Y700456D01*
X3663Y700365D01*
X3698Y700276D01*
X3736Y700188D01*
X3778Y700101D01*
X3823Y700017D01*
X3872Y699934D01*
X3924Y699853D01*
X3979Y699775D01*
X4037Y699699D01*
X4099Y699625D01*
X4163Y699554D01*
X4230Y699485D01*
X4300Y699419D01*
X4373Y699356D01*
X4372Y699356D02*
X334466Y424653D01*
X239866Y1453D01*
X239857Y1405D01*
X239852Y1357D01*
X239851Y1308D01*
X239854Y1260D01*
X239860Y1212D01*
X239870Y1165D01*
X239884Y1118D01*
X239902Y1073D01*
X239923Y1029D01*
X239947Y987D01*
X239974Y947D01*
X240005Y910D01*
X240038Y875D01*
X240074Y842D01*
X240113Y813D01*
X240154Y787D01*
X240196Y763D01*
X240240Y744D01*
X240286Y728D01*
X240333Y715D01*
X240381Y706D01*
X240429Y701D01*
X240477Y700D01*
X240526Y703D01*
X240574Y709D01*
X240621Y719D01*
X240668Y733D01*
X240713Y750D01*
X240757Y771D01*
X240799Y795D01*
X607616Y232081D01*
X978645Y12656D01*
X978716Y12616D01*
X978789Y12580D01*
X978864Y12547D01*
X978940Y12518D01*
X979017Y12493D01*
X979095Y12471D01*
X979175Y12453D01*
X979255Y12439D01*
X979336Y12429D01*
X979417Y12422D01*
X979498Y12420D01*
X979580Y12422D01*
X979661Y12427D01*
X979742Y12436D01*
X979822Y12449D01*
X979902Y12466D01*
X979980Y12487D01*
X980058Y12512D01*
X980134Y12540D01*
X980209Y12572D01*
X980282Y12607D01*
X980354Y12646D01*
X980423Y12688D01*
X980491Y12734D01*
X980556Y12783D01*
X980619Y12835D01*
X980679Y12889D01*
X980736Y12947D01*
X980791Y13007D01*
X980843Y13070D01*
X980891Y13136D01*
X980937Y13203D01*
X980979Y13273D01*
X981018Y13344D01*
X981053Y13418D01*
X981085Y13493D01*
X981113Y13569D01*
X981137Y13647D01*
X981158Y13726D01*
X981174Y13805D01*
X981187Y13886D01*
X981196Y13966D01*
X981202Y14048D01*
X981203Y14129D01*
X981200Y14210D01*
X981194Y14292D01*
X981183Y14372D01*
X981169Y14452D01*
X981151Y14532D01*
X981150Y14532D02*
X875170Y432359D01*
X1195568Y714823D01*
X1195652Y714899D01*
X1195734Y714979D01*
X1195812Y715061D01*
X1195888Y715145D01*
X1195960Y715233D01*
X1196030Y715322D01*
X1196097Y715414D01*
X1196160Y715508D01*
X1196220Y715605D01*
X1196277Y715703D01*
X1196330Y715803D01*
X1196380Y715905D01*
X1196427Y716009D01*
X1196470Y716114D01*
X1196509Y716220D01*
X1196545Y716328D01*
X1196577Y716437D01*
X1196605Y716547D01*
X1196629Y716658D01*
X1196650Y716769D01*
X1196667Y716882D01*
X1196680Y716995D01*
X1196689Y717108D01*
X1196695Y717221D01*
X1196696Y717335D01*
X1196694Y717448D01*
X1196687Y717562D01*
X1196677Y717675D01*
X1196663Y717787D01*
X1196645Y717899D01*
X1196624Y718011D01*
X1196598Y718121D01*
X1196569Y718231D01*
X1196536Y718340D01*
X1196499Y718447D01*
X1196459Y718553D01*
X1196415Y718658D01*
X1196368Y718761D01*
X1196317Y718863D01*
X1196263Y718962D01*
X1196205Y719060D01*
X1196144Y719156D01*
X1196080Y719250D01*
X1196012Y719341D01*
X1195942Y719430D01*
X1195868Y719517D01*
X1195792Y719601D01*
X1195713Y719682D01*
X1195631Y719761D01*
X1195546Y719836D01*
X1195459Y719909D01*
X1195370Y719979D01*
X1195278Y720046D01*
X1195184Y720109D01*
X1195088Y720170D01*
X1194990Y720227D01*
X1194890Y720280D01*
X1194788Y720331D01*
X1194684Y720377D01*
X1194579Y720420D01*
X1194473Y720460D01*
X1194365Y720496D01*
X1194256Y720528D01*
X1194146Y720557D01*
X1194035Y720581D01*
X1193924Y720602D01*
X1193812Y720619D01*
X1193699Y720632D01*
X1193586Y720642D01*
X1193585Y720642D02*
X767380Y748707D01*
D11*
X660400Y647700D03*
X660400Y622300D03*
D12*
X622300Y571500D03*
X622300Y647700D03*
X584200Y571500D03*
X584200Y647700D03*
D13*
X502412Y599694D03*
X437388Y599694D03*
X502412Y644906D03*
X437388Y644906D03*
X704088Y644906D03*
X769112Y644906D03*
X704088Y599694D03*
X769112Y599694D03*
D14*
X563500Y534670D03*
D15*
X588900Y534670D03*
X614300Y534670D03*
X614300Y509270D03*
X588900Y509270D03*
X563500Y509270D03*
X639700Y509270D03*
D14*
X639700Y534670D03*
D16*
X576580Y1058970D02*
X576580Y1069550D01*
X589280Y1069550D02*
X589280Y1058970D01*
X601980Y1058970D02*
X601980Y1069550D01*
X614680Y1069550D02*
X614680Y1058970D01*
X577850Y1000970D02*
X577850Y990390D01*
X590550Y990390D02*
X590550Y1000970D01*
X603250Y1000970D02*
X603250Y990390D01*
X615950Y990390D02*
X615950Y1000970D01*
X579120Y931120D02*
X579120Y920540D01*
X591820Y920540D02*
X591820Y931120D01*
X604520Y931120D02*
X604520Y920540D01*
X617220Y920540D02*
X617220Y931120D01*
X579120Y861270D02*
X579120Y850690D01*
X591820Y850690D02*
X591820Y861270D01*
X604520Y861270D02*
X604520Y850690D01*
X617220Y850690D02*
X617220Y861270D01*
X1111762Y709903D02*
X1121824Y713172D01*
X1125749Y701094D02*
X1115687Y697825D01*
X1119611Y685746D02*
X1129673Y689015D01*
X1133598Y676937D02*
X1123536Y673668D01*
X1055784Y690312D02*
X1045722Y687043D01*
X1049647Y674965D02*
X1059709Y678234D01*
X1063633Y666155D02*
X1053571Y662886D01*
X1057496Y650808D02*
X1067558Y654077D01*
X989744Y667452D02*
X979682Y664183D01*
X983607Y652105D02*
X993669Y655374D01*
X997593Y643295D02*
X987531Y640026D01*
X991456Y627948D02*
X1001518Y631217D01*
X923704Y645862D02*
X913642Y642593D01*
X917567Y630515D02*
X927629Y633784D01*
X931553Y621705D02*
X921491Y618436D01*
X925416Y606358D02*
X935478Y609627D01*
X944482Y92947D02*
X950701Y84388D01*
X940427Y76923D02*
X934208Y85482D01*
X923933Y78017D02*
X930152Y69458D01*
X919878Y61993D02*
X913659Y70552D01*
X908791Y140268D02*
X902572Y148827D01*
X892298Y141362D02*
X898517Y132803D01*
X888242Y125338D02*
X882023Y133897D01*
X871749Y126432D02*
X877968Y117873D01*
X866881Y196148D02*
X860662Y204707D01*
X850388Y197242D02*
X856607Y188683D01*
X846332Y181218D02*
X840113Y189777D01*
X829839Y182312D02*
X836058Y173753D01*
X826241Y250758D02*
X820022Y259317D01*
X809748Y251852D02*
X815967Y243293D01*
X805692Y235828D02*
X799473Y244387D01*
X789199Y236922D02*
X795418Y228363D01*
X306811Y61662D02*
X300592Y53103D01*
X290318Y60568D02*
X296537Y69127D01*
X286262Y76592D02*
X280043Y68033D01*
X269769Y75498D02*
X275988Y84057D01*
X339962Y110253D02*
X346181Y118812D01*
X335907Y126277D02*
X329688Y117718D01*
X319413Y125183D02*
X325632Y133742D01*
X315358Y141207D02*
X309139Y132648D01*
X380602Y166133D02*
X386821Y174692D01*
X376547Y182157D02*
X370328Y173598D01*
X360053Y181063D02*
X366272Y189622D01*
X355998Y197087D02*
X349779Y188528D01*
D17*
X711200Y368300D03*
D18*
X723900Y393700D03*
X736600Y368300D03*
D19*
X528240Y312900D02*
X513160Y312900D01*
X513160Y372900D02*
X528240Y372900D01*
X567700Y350440D02*
X567700Y335360D01*
D20*
X495300Y723900D03*
X495300Y495300D03*
X711200Y723900D03*
X711200Y495300D03*
D21*
X838200Y482600D03*
D22*
X838200Y517600D03*
X838200Y552600D03*
D21*
X368300Y546100D03*
D22*
X368300Y511100D03*
X368300Y476100D03*
D23*
X508000Y439420D02*
X508000Y424180D01*
X533400Y424180D02*
X533400Y439420D01*
X558800Y439420D02*
X558800Y424180D01*
D24*
X504190Y345440D03*
D25*
X539190Y345440D03*
D26*
X647700Y381000D03*
D27*
X647700Y406400D03*
D26*
X444500Y419100D03*
D27*
X444500Y444500D03*
D28*
X609600Y316880D02*
X609600Y304800D01*
X593600Y304800D02*
X593600Y316880D01*
X625600Y316880D02*
X625600Y304800D01*
D29*
X575600Y254300D03*
D28*
X601600Y280720D02*
X601600Y292800D01*
X617600Y292800D02*
X617600Y280720D01*
D29*
X644600Y254300D03*
D16*
X426191Y231842D02*
X419972Y223283D01*
X409698Y230748D02*
X415917Y239307D01*
X405642Y246772D02*
X399423Y238213D01*
X389149Y245678D02*
X395368Y254237D01*
X80424Y658428D02*
X70362Y661697D01*
X74287Y673775D02*
X84349Y670506D01*
X88273Y682585D02*
X78211Y685854D01*
X82136Y697932D02*
X92198Y694663D01*
X136402Y641377D02*
X146464Y638108D01*
X150389Y650186D02*
X140327Y653455D01*
X144251Y665534D02*
X154313Y662265D01*
X158238Y674343D02*
X148176Y677612D01*
X202442Y621057D02*
X212504Y617788D01*
X216429Y629866D02*
X206367Y633135D01*
X210291Y645214D02*
X220353Y641945D01*
X224278Y654023D02*
X214216Y657292D01*
X268482Y600737D02*
X278544Y597468D01*
X282469Y609546D02*
X272407Y612815D01*
X276331Y624894D02*
X286393Y621625D01*
X290318Y633703D02*
X280256Y636972D01*
D30*
X334542Y613033D03*
X328398Y588387D03*
D31*
X609600Y800100D03*
X584200Y800100D03*
D32*
X873875Y594982D03*
X866025Y619138D03*
D33*
X770775Y288445D03*
X791325Y303375D03*
D34*
X427875Y290675D03*
X448425Y275745D03*
M02*
