M48
;GenerationSoftware,Autodesk,EAGLE,9.2.2*%
;CreationDate,2018-11-25T16:13:04Z*%
FMAT,2
ICI,OFF
METRIC,TZ,000.000
T9C0.305
T8C0.550
T7C0.700
T6C0.800
T5C0.813
T4C1.000
T3C1.016
T2C1.200
T1C1.600
%
G90
M71
T1
X64460Y25430
X57560Y25430
T2
X53919Y34544
X83820Y48260
X83820Y51760
X83820Y55260
X50419Y34544
X36830Y47610
X36830Y51110
X36830Y54610
T3
X76911Y59969
X49530Y72390
X49530Y49530
X71120Y72390
X71120Y49530
X50241Y59969
X43739Y59969
X50241Y64491
X43739Y64491
X70409Y64491
X76911Y64491
X70409Y59969
X55880Y43180
X53340Y43180
X50800Y43180
T4
X63970Y50927
X63970Y53467
X56350Y50927
X58890Y50927
X61430Y50927
X61430Y53467
X58890Y53467
X52070Y37290
X52070Y31290
X56770Y34290
X56350Y53467
T5
X44842Y27575
X44450Y44450
X44450Y41910
X64770Y40640
X64770Y38100
X33454Y61303
X32840Y58839
X60960Y80010
X58420Y80010
X87387Y59498
X58420Y64770
X58420Y57150
X62230Y64770
X62230Y57150
X66040Y62230
X66040Y64770
X86603Y61914
X77078Y28845
X79132Y30337
X42788Y29067
T6
X73660Y36830
X72390Y39370
X71120Y36830
T7
X59360Y30480
X60960Y30480
X60160Y29280
X61760Y29280
X62560Y30480
T8
X89541Y13708
X88513Y12962
X87486Y12215
X86377Y20043
X85350Y19296
X84322Y18550
X83295Y17803
X82313Y25504
X81286Y24757
X80258Y24011
X79231Y23264
X30370Y5738
X29343Y6485
X28315Y7231
X27288Y7978
X34307Y11453
X33280Y12200
X32252Y12946
X31225Y13693
X38371Y17041
X37344Y17788
X36316Y18534
X35289Y19281
X90568Y14455
X91677Y6627
X92704Y7374
X93732Y8120
X94759Y8867
X93045Y60799
X92652Y62007
X92260Y63215
X91867Y64423
X99649Y62958
X99256Y64166
X98864Y65374
X98471Y66582
X106253Y65244
X105860Y66452
X105468Y67660
X105075Y68868
X112857Y67530
X112464Y68738
X112072Y69946
X111679Y71154
X61722Y85598
X60452Y85598
X59182Y85598
X57912Y85598
X61722Y92583
X60452Y92583
X59182Y92583
X57912Y92583
X61595Y99568
X60325Y99568
X59055Y99568
X42308Y22756
X41281Y23503
X40253Y24249
X39226Y24996
X7539Y66006
X7932Y67214
X8324Y68422
X8717Y69630
X14143Y63974
X14536Y65182
X14928Y66390
X15321Y67598
X20747Y61942
X21140Y63150
X21532Y64358
X21925Y65566
X27351Y59910
X27744Y61118
X28136Y62326
X28529Y63534
X57785Y99568
X61468Y106426
X60198Y106426
X58928Y106426
X57658Y106426
T9
X31928Y10744
X32537Y9677
X12497Y67208
X90678Y11201
X107671Y69875
M30