G04 EAGLE Gerber RS-274X export*
G75*
%MOMM*%
%FSLAX34Y34*%
%LPD*%
%INSilkscreen Bottom*%
%IPPOS*%
%AMOC8*
5,1,8,0,0,1.08239X$1,22.5*%
G01*
%ADD10C,0.001000*%
%ADD11C,0.406400*%
%ADD12C,0.152400*%


D10*
X767380Y748707D02*
X596777Y1142947D01*
X596737Y1143033D01*
X596694Y1143119D01*
X596647Y1143202D01*
X596597Y1143283D01*
X596543Y1143362D01*
X596487Y1143439D01*
X596427Y1143513D01*
X596364Y1143585D01*
X596298Y1143655D01*
X596230Y1143721D01*
X596159Y1143785D01*
X596085Y1143845D01*
X596009Y1143903D01*
X595930Y1143957D01*
X595849Y1144008D01*
X595767Y1144056D01*
X595682Y1144100D01*
X595596Y1144141D01*
X595508Y1144178D01*
X595418Y1144211D01*
X595327Y1144241D01*
X595235Y1144267D01*
X595143Y1144289D01*
X595049Y1144307D01*
X594954Y1144321D01*
X594860Y1144332D01*
X594764Y1144338D01*
X594669Y1144341D01*
X594573Y1144340D01*
X594478Y1144334D01*
X594383Y1144325D01*
X594288Y1144312D01*
X594194Y1144295D01*
X594101Y1144274D01*
X594009Y1144249D01*
X593918Y1144221D01*
X593828Y1144188D01*
X593740Y1144153D01*
X593653Y1144113D01*
X593567Y1144070D01*
X593484Y1144023D01*
X593403Y1143973D01*
X593323Y1143920D01*
X593247Y1143863D01*
X593172Y1143804D01*
X593100Y1143741D01*
X593031Y1143676D01*
X592964Y1143607D01*
X592900Y1143536D01*
X592839Y1143462D01*
X592782Y1143386D01*
X592727Y1143308D01*
X592676Y1143227D01*
X592628Y1143145D01*
X592584Y1143060D01*
X592543Y1142974D01*
X592506Y1142886D01*
X433200Y743945D01*
X5663Y703530D01*
X5568Y703520D01*
X5473Y703505D01*
X5379Y703486D01*
X5286Y703464D01*
X5193Y703437D01*
X5102Y703407D01*
X5012Y703374D01*
X4924Y703336D01*
X4837Y703296D01*
X4752Y703251D01*
X4668Y703204D01*
X4587Y703153D01*
X4508Y703098D01*
X4431Y703041D01*
X4357Y702980D01*
X4285Y702917D01*
X4215Y702850D01*
X4149Y702781D01*
X4085Y702709D01*
X4024Y702635D01*
X3967Y702558D01*
X3912Y702479D01*
X3861Y702398D01*
X3813Y702315D01*
X3768Y702230D01*
X3727Y702143D01*
X3690Y702055D01*
X3656Y701965D01*
X3626Y701874D01*
X3599Y701782D01*
X3576Y701688D01*
X3557Y701594D01*
X3542Y701500D01*
X3531Y701404D01*
X3524Y701309D01*
X3520Y701213D01*
X3521Y701117D01*
X3525Y701021D01*
X3533Y700925D01*
X3545Y700830D01*
X3561Y700735D01*
X3581Y700641D01*
X3605Y700548D01*
X3632Y700456D01*
X3663Y700365D01*
X3698Y700276D01*
X3736Y700188D01*
X3778Y700101D01*
X3823Y700017D01*
X3872Y699934D01*
X3924Y699853D01*
X3979Y699775D01*
X4037Y699699D01*
X4099Y699625D01*
X4163Y699554D01*
X4230Y699485D01*
X4300Y699419D01*
X4373Y699356D01*
X4372Y699356D02*
X334466Y424653D01*
X239866Y1453D01*
X239857Y1405D01*
X239852Y1357D01*
X239851Y1308D01*
X239854Y1260D01*
X239860Y1212D01*
X239870Y1165D01*
X239884Y1118D01*
X239902Y1073D01*
X239923Y1029D01*
X239947Y987D01*
X239974Y947D01*
X240005Y910D01*
X240038Y875D01*
X240074Y842D01*
X240113Y813D01*
X240154Y787D01*
X240196Y763D01*
X240240Y744D01*
X240286Y728D01*
X240333Y715D01*
X240381Y706D01*
X240429Y701D01*
X240477Y700D01*
X240526Y703D01*
X240574Y709D01*
X240621Y719D01*
X240668Y733D01*
X240713Y750D01*
X240757Y771D01*
X240799Y795D01*
X607616Y232081D01*
X978645Y12656D01*
X978716Y12616D01*
X978789Y12580D01*
X978864Y12547D01*
X978940Y12518D01*
X979017Y12493D01*
X979095Y12471D01*
X979175Y12453D01*
X979255Y12439D01*
X979336Y12429D01*
X979417Y12422D01*
X979498Y12420D01*
X979580Y12422D01*
X979661Y12427D01*
X979742Y12436D01*
X979822Y12449D01*
X979902Y12466D01*
X979980Y12487D01*
X980058Y12512D01*
X980134Y12540D01*
X980209Y12572D01*
X980282Y12607D01*
X980354Y12646D01*
X980423Y12688D01*
X980491Y12734D01*
X980556Y12783D01*
X980619Y12835D01*
X980679Y12889D01*
X980736Y12947D01*
X980791Y13007D01*
X980843Y13070D01*
X980891Y13136D01*
X980937Y13203D01*
X980979Y13273D01*
X981018Y13344D01*
X981053Y13418D01*
X981085Y13493D01*
X981113Y13569D01*
X981137Y13647D01*
X981158Y13726D01*
X981174Y13805D01*
X981187Y13886D01*
X981196Y13966D01*
X981202Y14048D01*
X981203Y14129D01*
X981200Y14210D01*
X981194Y14292D01*
X981183Y14372D01*
X981169Y14452D01*
X981151Y14532D01*
X981150Y14532D02*
X875170Y432359D01*
X1195568Y714823D01*
X1195652Y714899D01*
X1195734Y714979D01*
X1195812Y715061D01*
X1195888Y715145D01*
X1195960Y715233D01*
X1196030Y715322D01*
X1196097Y715414D01*
X1196160Y715508D01*
X1196220Y715605D01*
X1196277Y715703D01*
X1196330Y715803D01*
X1196380Y715905D01*
X1196427Y716009D01*
X1196470Y716114D01*
X1196509Y716220D01*
X1196545Y716328D01*
X1196577Y716437D01*
X1196605Y716547D01*
X1196629Y716658D01*
X1196650Y716769D01*
X1196667Y716882D01*
X1196680Y716995D01*
X1196689Y717108D01*
X1196695Y717221D01*
X1196696Y717335D01*
X1196694Y717448D01*
X1196687Y717562D01*
X1196677Y717675D01*
X1196663Y717787D01*
X1196645Y717899D01*
X1196624Y718011D01*
X1196598Y718121D01*
X1196569Y718231D01*
X1196536Y718340D01*
X1196499Y718447D01*
X1196459Y718553D01*
X1196415Y718658D01*
X1196368Y718761D01*
X1196317Y718863D01*
X1196263Y718962D01*
X1196205Y719060D01*
X1196144Y719156D01*
X1196080Y719250D01*
X1196012Y719341D01*
X1195942Y719430D01*
X1195868Y719517D01*
X1195792Y719601D01*
X1195713Y719682D01*
X1195631Y719761D01*
X1195546Y719836D01*
X1195459Y719909D01*
X1195370Y719979D01*
X1195278Y720046D01*
X1195184Y720109D01*
X1195088Y720170D01*
X1194990Y720227D01*
X1194890Y720280D01*
X1194788Y720331D01*
X1194684Y720377D01*
X1194579Y720420D01*
X1194473Y720460D01*
X1194365Y720496D01*
X1194256Y720528D01*
X1194146Y720557D01*
X1194035Y720581D01*
X1193924Y720602D01*
X1193812Y720619D01*
X1193699Y720632D01*
X1193586Y720642D01*
X1193585Y720642D02*
X767380Y748707D01*
D11*
X798068Y709168D02*
X787682Y662432D01*
X777296Y693589D01*
X766911Y662432D01*
X756525Y709168D01*
X745546Y693589D02*
X745546Y662432D01*
X746845Y706572D02*
X746845Y709168D01*
X744248Y709168D01*
X744248Y706572D01*
X746845Y706572D01*
X730608Y709168D02*
X730608Y662432D01*
X730608Y709168D02*
X709836Y709168D01*
X709836Y688396D02*
X730608Y688396D01*
X697287Y693589D02*
X697287Y662432D01*
X698585Y706572D02*
X698585Y709168D01*
X695988Y709168D01*
X695988Y706572D01*
X698585Y706572D01*
X648970Y662432D02*
X648719Y662435D01*
X648468Y662444D01*
X648218Y662459D01*
X647968Y662480D01*
X647718Y662508D01*
X647469Y662541D01*
X647221Y662580D01*
X646975Y662625D01*
X646729Y662677D01*
X646484Y662734D01*
X646242Y662797D01*
X646000Y662866D01*
X645761Y662940D01*
X645523Y663021D01*
X645287Y663107D01*
X645054Y663199D01*
X644822Y663296D01*
X644593Y663399D01*
X644367Y663508D01*
X644143Y663622D01*
X643923Y663741D01*
X643705Y663866D01*
X643490Y663995D01*
X643278Y664130D01*
X643070Y664270D01*
X642865Y664416D01*
X642664Y664566D01*
X642466Y664720D01*
X642273Y664880D01*
X642083Y665044D01*
X641897Y665213D01*
X641715Y665386D01*
X641538Y665563D01*
X641365Y665745D01*
X641196Y665931D01*
X641032Y666121D01*
X640872Y666314D01*
X640718Y666512D01*
X640568Y666713D01*
X640422Y666918D01*
X640282Y667126D01*
X640147Y667338D01*
X640018Y667553D01*
X639893Y667771D01*
X639774Y667991D01*
X639660Y668215D01*
X639551Y668441D01*
X639448Y668670D01*
X639351Y668901D01*
X639259Y669135D01*
X639173Y669371D01*
X639092Y669609D01*
X639018Y669848D01*
X638949Y670090D01*
X638886Y670332D01*
X638829Y670577D01*
X638777Y670823D01*
X638732Y671069D01*
X638693Y671317D01*
X638660Y671566D01*
X638632Y671816D01*
X638611Y672066D01*
X638596Y672316D01*
X638587Y672567D01*
X638584Y672818D01*
X648970Y662432D02*
X649495Y662438D01*
X650020Y662457D01*
X650544Y662489D01*
X651067Y662532D01*
X651589Y662589D01*
X652109Y662658D01*
X652628Y662739D01*
X653144Y662833D01*
X653658Y662939D01*
X654170Y663057D01*
X654678Y663188D01*
X655183Y663330D01*
X655685Y663485D01*
X656183Y663651D01*
X656676Y663830D01*
X657166Y664020D01*
X657650Y664222D01*
X658130Y664436D01*
X658604Y664660D01*
X659073Y664897D01*
X659536Y665144D01*
X659993Y665402D01*
X660444Y665671D01*
X660888Y665951D01*
X661325Y666241D01*
X661755Y666542D01*
X662178Y666853D01*
X662594Y667174D01*
X663001Y667505D01*
X663401Y667846D01*
X663792Y668196D01*
X664175Y668555D01*
X664549Y668923D01*
X663251Y698782D02*
X663248Y699033D01*
X663239Y699284D01*
X663224Y699534D01*
X663203Y699784D01*
X663175Y700034D01*
X663142Y700283D01*
X663103Y700531D01*
X663058Y700777D01*
X663006Y701023D01*
X662949Y701268D01*
X662886Y701510D01*
X662817Y701752D01*
X662743Y701991D01*
X662662Y702229D01*
X662576Y702465D01*
X662484Y702699D01*
X662387Y702930D01*
X662284Y703159D01*
X662175Y703385D01*
X662061Y703609D01*
X661942Y703829D01*
X661817Y704047D01*
X661688Y704262D01*
X661553Y704474D01*
X661413Y704682D01*
X661267Y704887D01*
X661117Y705088D01*
X660963Y705286D01*
X660803Y705479D01*
X660639Y705669D01*
X660470Y705855D01*
X660297Y706037D01*
X660120Y706214D01*
X659938Y706387D01*
X659752Y706556D01*
X659562Y706720D01*
X659369Y706880D01*
X659171Y707034D01*
X658970Y707184D01*
X658765Y707330D01*
X658557Y707470D01*
X658345Y707605D01*
X658130Y707734D01*
X657912Y707859D01*
X657692Y707978D01*
X657468Y708092D01*
X657242Y708201D01*
X657013Y708304D01*
X656782Y708401D01*
X656548Y708493D01*
X656312Y708579D01*
X656074Y708660D01*
X655835Y708734D01*
X655593Y708803D01*
X655351Y708866D01*
X655106Y708923D01*
X654860Y708975D01*
X654614Y709020D01*
X654366Y709059D01*
X654117Y709092D01*
X653867Y709120D01*
X653617Y709141D01*
X653367Y709156D01*
X653116Y709165D01*
X652865Y709168D01*
X652401Y709162D01*
X651937Y709146D01*
X651474Y709118D01*
X651011Y709080D01*
X650550Y709030D01*
X650090Y708969D01*
X649631Y708898D01*
X649175Y708815D01*
X648720Y708722D01*
X648268Y708618D01*
X647818Y708503D01*
X647371Y708377D01*
X646928Y708241D01*
X646487Y708094D01*
X646051Y707937D01*
X645618Y707769D01*
X645189Y707591D01*
X644765Y707403D01*
X644345Y707205D01*
X643930Y706997D01*
X643521Y706779D01*
X643116Y706552D01*
X642717Y706315D01*
X642324Y706068D01*
X641937Y705812D01*
X641556Y705547D01*
X641181Y705273D01*
X658057Y689695D02*
X658275Y689826D01*
X658490Y689964D01*
X658701Y690106D01*
X658909Y690253D01*
X659113Y690406D01*
X659313Y690563D01*
X659510Y690725D01*
X659702Y690892D01*
X659891Y691063D01*
X660075Y691239D01*
X660255Y691419D01*
X660430Y691603D01*
X660601Y691792D01*
X660768Y691985D01*
X660930Y692182D01*
X661087Y692382D01*
X661239Y692586D01*
X661386Y692794D01*
X661528Y693006D01*
X661665Y693221D01*
X661796Y693439D01*
X661923Y693660D01*
X662044Y693884D01*
X662159Y694111D01*
X662269Y694340D01*
X662374Y694573D01*
X662473Y694808D01*
X662566Y695045D01*
X662653Y695284D01*
X662735Y695525D01*
X662810Y695768D01*
X662880Y696013D01*
X662944Y696260D01*
X663002Y696508D01*
X663054Y696757D01*
X663100Y697008D01*
X663139Y697259D01*
X663173Y697512D01*
X663201Y697765D01*
X663222Y698019D01*
X663238Y698273D01*
X663247Y698527D01*
X663250Y698782D01*
X643777Y681906D02*
X643559Y681774D01*
X643344Y681636D01*
X643133Y681494D01*
X642925Y681347D01*
X642721Y681194D01*
X642521Y681037D01*
X642324Y680875D01*
X642132Y680708D01*
X641943Y680537D01*
X641759Y680361D01*
X641579Y680181D01*
X641404Y679997D01*
X641233Y679808D01*
X641066Y679615D01*
X640904Y679418D01*
X640747Y679218D01*
X640595Y679014D01*
X640448Y678806D01*
X640306Y678594D01*
X640169Y678379D01*
X640038Y678161D01*
X639911Y677940D01*
X639790Y677716D01*
X639675Y677489D01*
X639565Y677260D01*
X639460Y677027D01*
X639361Y676793D01*
X639268Y676555D01*
X639181Y676316D01*
X639099Y676075D01*
X639024Y675832D01*
X638954Y675587D01*
X638890Y675340D01*
X638832Y675092D01*
X638780Y674843D01*
X638734Y674592D01*
X638695Y674341D01*
X638661Y674088D01*
X638633Y673835D01*
X638612Y673581D01*
X638596Y673327D01*
X638587Y673073D01*
X638584Y672818D01*
X643777Y681905D02*
X658058Y689695D01*
X630089Y693589D02*
X614511Y693589D01*
X624897Y709168D02*
X624897Y670221D01*
X624896Y670221D02*
X624894Y670033D01*
X624887Y669845D01*
X624876Y669657D01*
X624860Y669469D01*
X624839Y669282D01*
X624814Y669096D01*
X624785Y668910D01*
X624751Y668725D01*
X624712Y668540D01*
X624670Y668357D01*
X624622Y668175D01*
X624571Y667994D01*
X624515Y667814D01*
X624454Y667636D01*
X624390Y667459D01*
X624321Y667284D01*
X624248Y667110D01*
X624171Y666939D01*
X624089Y666769D01*
X624004Y666601D01*
X623914Y666436D01*
X623821Y666272D01*
X623724Y666111D01*
X623622Y665953D01*
X623517Y665796D01*
X623408Y665643D01*
X623296Y665492D01*
X623180Y665344D01*
X623060Y665198D01*
X622937Y665056D01*
X622811Y664917D01*
X622681Y664780D01*
X622548Y664647D01*
X622411Y664517D01*
X622272Y664391D01*
X622130Y664268D01*
X621984Y664148D01*
X621836Y664032D01*
X621685Y663920D01*
X621532Y663811D01*
X621375Y663706D01*
X621217Y663604D01*
X621056Y663507D01*
X620892Y663414D01*
X620727Y663324D01*
X620559Y663239D01*
X620389Y663157D01*
X620218Y663080D01*
X620044Y663007D01*
X619869Y662938D01*
X619692Y662874D01*
X619514Y662813D01*
X619334Y662757D01*
X619153Y662706D01*
X618971Y662658D01*
X618788Y662616D01*
X618603Y662577D01*
X618418Y662543D01*
X618232Y662514D01*
X618046Y662489D01*
X617859Y662468D01*
X617671Y662452D01*
X617483Y662441D01*
X617295Y662434D01*
X617107Y662432D01*
X614511Y662432D01*
X594413Y680607D02*
X582729Y680607D01*
X594413Y680608D02*
X594634Y680605D01*
X594855Y680597D01*
X595076Y680584D01*
X595297Y680565D01*
X595517Y680541D01*
X595736Y680511D01*
X595955Y680476D01*
X596172Y680436D01*
X596389Y680391D01*
X596604Y680340D01*
X596819Y680284D01*
X597031Y680223D01*
X597242Y680156D01*
X597452Y680085D01*
X597660Y680008D01*
X597865Y679927D01*
X598069Y679840D01*
X598270Y679749D01*
X598470Y679652D01*
X598667Y679551D01*
X598861Y679445D01*
X599052Y679335D01*
X599241Y679219D01*
X599427Y679099D01*
X599611Y678975D01*
X599791Y678846D01*
X599967Y678713D01*
X600141Y678576D01*
X600311Y678434D01*
X600478Y678288D01*
X600641Y678139D01*
X600800Y677985D01*
X600955Y677828D01*
X601107Y677667D01*
X601255Y677502D01*
X601398Y677333D01*
X601538Y677162D01*
X601673Y676986D01*
X601804Y676808D01*
X601931Y676626D01*
X602053Y676442D01*
X602170Y676254D01*
X602283Y676064D01*
X602392Y675871D01*
X602495Y675675D01*
X602594Y675477D01*
X602688Y675277D01*
X602777Y675074D01*
X602861Y674870D01*
X602940Y674663D01*
X603014Y674454D01*
X603083Y674244D01*
X603147Y674032D01*
X603205Y673819D01*
X603259Y673604D01*
X603307Y673388D01*
X603350Y673171D01*
X603387Y672953D01*
X603420Y672734D01*
X603446Y672514D01*
X603468Y672294D01*
X603484Y672073D01*
X603495Y671852D01*
X603500Y671631D01*
X603500Y671409D01*
X603495Y671188D01*
X603484Y670967D01*
X603468Y670746D01*
X603446Y670526D01*
X603420Y670306D01*
X603387Y670087D01*
X603350Y669869D01*
X603307Y669652D01*
X603259Y669436D01*
X603205Y669221D01*
X603147Y669008D01*
X603083Y668796D01*
X603014Y668586D01*
X602940Y668377D01*
X602861Y668170D01*
X602777Y667966D01*
X602688Y667763D01*
X602594Y667563D01*
X602495Y667365D01*
X602392Y667169D01*
X602283Y666976D01*
X602170Y666786D01*
X602053Y666598D01*
X601931Y666414D01*
X601804Y666232D01*
X601673Y666054D01*
X601538Y665878D01*
X601398Y665707D01*
X601255Y665538D01*
X601107Y665373D01*
X600955Y665212D01*
X600800Y665055D01*
X600641Y664901D01*
X600478Y664752D01*
X600311Y664606D01*
X600141Y664464D01*
X599967Y664327D01*
X599791Y664194D01*
X599611Y664065D01*
X599427Y663941D01*
X599241Y663821D01*
X599052Y663705D01*
X598861Y663595D01*
X598667Y663489D01*
X598470Y663388D01*
X598270Y663291D01*
X598069Y663200D01*
X597865Y663113D01*
X597660Y663032D01*
X597452Y662955D01*
X597242Y662884D01*
X597031Y662817D01*
X596819Y662756D01*
X596604Y662700D01*
X596389Y662649D01*
X596172Y662604D01*
X595955Y662564D01*
X595736Y662529D01*
X595517Y662499D01*
X595297Y662475D01*
X595076Y662456D01*
X594855Y662443D01*
X594634Y662435D01*
X594413Y662432D01*
X582729Y662432D01*
X582729Y685800D01*
X582731Y685988D01*
X582738Y686176D01*
X582749Y686364D01*
X582765Y686552D01*
X582786Y686739D01*
X582811Y686925D01*
X582840Y687111D01*
X582874Y687296D01*
X582913Y687481D01*
X582955Y687664D01*
X583003Y687846D01*
X583054Y688027D01*
X583110Y688207D01*
X583171Y688385D01*
X583235Y688562D01*
X583304Y688737D01*
X583377Y688911D01*
X583454Y689082D01*
X583536Y689252D01*
X583621Y689420D01*
X583711Y689585D01*
X583804Y689749D01*
X583901Y689910D01*
X584003Y690068D01*
X584108Y690225D01*
X584217Y690378D01*
X584329Y690529D01*
X584445Y690677D01*
X584565Y690823D01*
X584688Y690965D01*
X584814Y691104D01*
X584944Y691241D01*
X585077Y691374D01*
X585214Y691504D01*
X585353Y691630D01*
X585495Y691753D01*
X585641Y691873D01*
X585789Y691989D01*
X585940Y692101D01*
X586093Y692210D01*
X586250Y692315D01*
X586408Y692417D01*
X586569Y692514D01*
X586733Y692607D01*
X586898Y692697D01*
X587066Y692782D01*
X587236Y692864D01*
X587407Y692941D01*
X587581Y693014D01*
X587756Y693083D01*
X587933Y693147D01*
X588111Y693208D01*
X588291Y693264D01*
X588472Y693315D01*
X588654Y693363D01*
X588837Y693405D01*
X589022Y693444D01*
X589207Y693478D01*
X589393Y693507D01*
X589579Y693532D01*
X589766Y693553D01*
X589954Y693569D01*
X590142Y693580D01*
X590330Y693587D01*
X590518Y693589D01*
X600904Y693589D01*
X568017Y693589D02*
X568017Y662432D01*
X568017Y693589D02*
X552439Y693589D01*
X552439Y688396D01*
X524905Y709168D02*
X509327Y662432D01*
X493748Y709168D01*
X484209Y698782D02*
X471227Y709168D01*
X471227Y662432D01*
X484209Y662432D02*
X458244Y662432D01*
X445855Y662432D02*
X445855Y665028D01*
X443258Y665028D01*
X443258Y662432D01*
X445855Y662432D01*
X430869Y698782D02*
X417887Y709168D01*
X417887Y662432D01*
X430869Y662432D02*
X404904Y662432D01*
D12*
X710438Y563118D02*
X710438Y546862D01*
X710438Y555893D02*
X701407Y555893D01*
X701407Y563118D02*
X701407Y546862D01*
X691337Y553184D02*
X687273Y553184D01*
X691337Y553184D02*
X691449Y553182D01*
X691560Y553176D01*
X691671Y553166D01*
X691782Y553153D01*
X691892Y553135D01*
X692001Y553113D01*
X692110Y553088D01*
X692218Y553059D01*
X692324Y553026D01*
X692430Y552989D01*
X692534Y552949D01*
X692636Y552905D01*
X692737Y552857D01*
X692836Y552806D01*
X692934Y552751D01*
X693029Y552693D01*
X693122Y552632D01*
X693213Y552567D01*
X693302Y552499D01*
X693388Y552428D01*
X693471Y552355D01*
X693552Y552278D01*
X693631Y552198D01*
X693706Y552116D01*
X693778Y552031D01*
X693848Y551944D01*
X693914Y551854D01*
X693977Y551762D01*
X694037Y551667D01*
X694093Y551571D01*
X694146Y551473D01*
X694195Y551373D01*
X694241Y551271D01*
X694283Y551168D01*
X694322Y551063D01*
X694357Y550957D01*
X694388Y550850D01*
X694415Y550742D01*
X694439Y550633D01*
X694458Y550523D01*
X694474Y550413D01*
X694486Y550302D01*
X694494Y550190D01*
X694498Y550079D01*
X694498Y549967D01*
X694494Y549856D01*
X694486Y549744D01*
X694474Y549633D01*
X694458Y549523D01*
X694439Y549413D01*
X694415Y549304D01*
X694388Y549196D01*
X694357Y549089D01*
X694322Y548983D01*
X694283Y548878D01*
X694241Y548775D01*
X694195Y548673D01*
X694146Y548573D01*
X694093Y548475D01*
X694037Y548379D01*
X693977Y548284D01*
X693914Y548192D01*
X693848Y548102D01*
X693778Y548015D01*
X693706Y547930D01*
X693631Y547848D01*
X693552Y547768D01*
X693471Y547691D01*
X693388Y547618D01*
X693302Y547547D01*
X693213Y547479D01*
X693122Y547414D01*
X693029Y547353D01*
X692934Y547295D01*
X692836Y547240D01*
X692737Y547189D01*
X692636Y547141D01*
X692534Y547097D01*
X692430Y547057D01*
X692324Y547020D01*
X692218Y546987D01*
X692110Y546958D01*
X692001Y546933D01*
X691892Y546911D01*
X691782Y546893D01*
X691671Y546880D01*
X691560Y546870D01*
X691449Y546864D01*
X691337Y546862D01*
X687273Y546862D01*
X687273Y554990D01*
X687275Y555091D01*
X687281Y555192D01*
X687290Y555293D01*
X687303Y555394D01*
X687320Y555494D01*
X687341Y555593D01*
X687365Y555691D01*
X687393Y555788D01*
X687425Y555885D01*
X687460Y555980D01*
X687499Y556073D01*
X687541Y556165D01*
X687587Y556256D01*
X687636Y556345D01*
X687688Y556431D01*
X687744Y556516D01*
X687802Y556599D01*
X687864Y556679D01*
X687929Y556757D01*
X687996Y556833D01*
X688066Y556906D01*
X688139Y556976D01*
X688215Y557043D01*
X688293Y557108D01*
X688373Y557170D01*
X688456Y557228D01*
X688541Y557284D01*
X688628Y557336D01*
X688716Y557385D01*
X688807Y557431D01*
X688899Y557473D01*
X688992Y557512D01*
X689087Y557547D01*
X689184Y557579D01*
X689281Y557607D01*
X689379Y557631D01*
X689478Y557652D01*
X689578Y557669D01*
X689679Y557682D01*
X689780Y557691D01*
X689881Y557697D01*
X689982Y557699D01*
X693595Y557699D01*
X677630Y546862D02*
X674017Y546862D01*
X677630Y546862D02*
X677731Y546864D01*
X677832Y546870D01*
X677933Y546879D01*
X678034Y546892D01*
X678134Y546909D01*
X678233Y546930D01*
X678331Y546954D01*
X678428Y546982D01*
X678525Y547014D01*
X678620Y547049D01*
X678713Y547088D01*
X678805Y547130D01*
X678896Y547176D01*
X678985Y547225D01*
X679071Y547277D01*
X679156Y547333D01*
X679239Y547391D01*
X679319Y547453D01*
X679397Y547518D01*
X679473Y547585D01*
X679546Y547655D01*
X679616Y547728D01*
X679683Y547804D01*
X679748Y547882D01*
X679810Y547962D01*
X679868Y548045D01*
X679924Y548130D01*
X679976Y548217D01*
X680025Y548305D01*
X680071Y548396D01*
X680113Y548488D01*
X680152Y548581D01*
X680187Y548676D01*
X680219Y548773D01*
X680247Y548870D01*
X680271Y548968D01*
X680292Y549067D01*
X680309Y549167D01*
X680322Y549268D01*
X680331Y549369D01*
X680337Y549470D01*
X680339Y549571D01*
X680339Y554990D01*
X680337Y555091D01*
X680331Y555192D01*
X680322Y555293D01*
X680309Y555394D01*
X680292Y555494D01*
X680271Y555593D01*
X680247Y555691D01*
X680219Y555788D01*
X680187Y555885D01*
X680152Y555980D01*
X680113Y556073D01*
X680071Y556165D01*
X680025Y556256D01*
X679976Y556345D01*
X679924Y556431D01*
X679868Y556516D01*
X679810Y556599D01*
X679748Y556679D01*
X679683Y556757D01*
X679616Y556833D01*
X679546Y556906D01*
X679473Y556976D01*
X679397Y557043D01*
X679319Y557108D01*
X679239Y557170D01*
X679156Y557228D01*
X679071Y557284D01*
X678985Y557336D01*
X678896Y557385D01*
X678805Y557431D01*
X678713Y557473D01*
X678620Y557512D01*
X678525Y557547D01*
X678428Y557579D01*
X678331Y557607D01*
X678233Y557631D01*
X678134Y557652D01*
X678034Y557669D01*
X677933Y557682D01*
X677832Y557691D01*
X677731Y557697D01*
X677630Y557699D01*
X674017Y557699D01*
X667683Y563118D02*
X667683Y546862D01*
X667683Y552281D02*
X660458Y557699D01*
X664522Y554538D02*
X660458Y546862D01*
X647253Y546862D02*
X641834Y563118D01*
X636416Y546862D01*
X637770Y550926D02*
X645898Y550926D01*
X630621Y549571D02*
X630621Y563118D01*
X630620Y549571D02*
X630618Y549470D01*
X630612Y549369D01*
X630603Y549268D01*
X630590Y549167D01*
X630573Y549067D01*
X630552Y548968D01*
X630528Y548870D01*
X630500Y548773D01*
X630468Y548676D01*
X630433Y548581D01*
X630394Y548488D01*
X630352Y548396D01*
X630306Y548305D01*
X630257Y548217D01*
X630205Y548130D01*
X630149Y548045D01*
X630091Y547962D01*
X630029Y547882D01*
X629964Y547804D01*
X629897Y547728D01*
X629827Y547655D01*
X629754Y547585D01*
X629678Y547518D01*
X629600Y547453D01*
X629520Y547391D01*
X629437Y547333D01*
X629352Y547277D01*
X629266Y547225D01*
X629177Y547176D01*
X629086Y547130D01*
X628994Y547088D01*
X628901Y547049D01*
X628806Y547014D01*
X628709Y546982D01*
X628612Y546954D01*
X628514Y546930D01*
X628415Y546909D01*
X628315Y546892D01*
X628214Y546879D01*
X628113Y546870D01*
X628012Y546864D01*
X627911Y546862D01*
X622284Y549571D02*
X622284Y563118D01*
X622284Y549571D02*
X622282Y549470D01*
X622276Y549369D01*
X622267Y549268D01*
X622254Y549167D01*
X622237Y549067D01*
X622216Y548968D01*
X622192Y548870D01*
X622164Y548773D01*
X622132Y548676D01*
X622097Y548581D01*
X622058Y548488D01*
X622016Y548396D01*
X621970Y548305D01*
X621921Y548217D01*
X621869Y548130D01*
X621813Y548045D01*
X621755Y547962D01*
X621693Y547882D01*
X621628Y547804D01*
X621561Y547728D01*
X621491Y547655D01*
X621418Y547585D01*
X621342Y547518D01*
X621264Y547453D01*
X621184Y547391D01*
X621101Y547333D01*
X621016Y547277D01*
X620930Y547225D01*
X620841Y547176D01*
X620750Y547130D01*
X620658Y547088D01*
X620565Y547049D01*
X620470Y547014D01*
X620373Y546982D01*
X620276Y546954D01*
X620178Y546930D01*
X620079Y546909D01*
X619979Y546892D01*
X619878Y546879D01*
X619777Y546870D01*
X619676Y546864D01*
X619575Y546862D01*
X602235Y546862D02*
X602235Y563118D01*
X597720Y563118D02*
X606751Y563118D01*
X591780Y563118D02*
X591780Y546862D01*
X591780Y557699D02*
X587264Y557699D01*
X587160Y557697D01*
X587057Y557691D01*
X586953Y557681D01*
X586850Y557667D01*
X586748Y557649D01*
X586647Y557628D01*
X586546Y557602D01*
X586447Y557573D01*
X586348Y557540D01*
X586251Y557503D01*
X586156Y557462D01*
X586062Y557418D01*
X585970Y557370D01*
X585880Y557319D01*
X585791Y557264D01*
X585705Y557206D01*
X585622Y557144D01*
X585540Y557080D01*
X585462Y557012D01*
X585386Y556942D01*
X585312Y556869D01*
X585242Y556792D01*
X585174Y556714D01*
X585110Y556632D01*
X585048Y556549D01*
X584990Y556463D01*
X584935Y556374D01*
X584884Y556284D01*
X584836Y556192D01*
X584792Y556098D01*
X584751Y556003D01*
X584714Y555906D01*
X584681Y555807D01*
X584652Y555708D01*
X584626Y555607D01*
X584605Y555506D01*
X584587Y555404D01*
X584573Y555301D01*
X584563Y555197D01*
X584557Y555094D01*
X584555Y554990D01*
X584555Y546862D01*
X575002Y546862D02*
X570487Y546862D01*
X575002Y546862D02*
X575103Y546864D01*
X575204Y546870D01*
X575305Y546879D01*
X575406Y546892D01*
X575506Y546909D01*
X575605Y546930D01*
X575703Y546954D01*
X575800Y546982D01*
X575897Y547014D01*
X575992Y547049D01*
X576085Y547088D01*
X576177Y547130D01*
X576268Y547176D01*
X576357Y547225D01*
X576443Y547277D01*
X576528Y547333D01*
X576611Y547391D01*
X576691Y547453D01*
X576769Y547518D01*
X576845Y547585D01*
X576918Y547655D01*
X576988Y547728D01*
X577055Y547804D01*
X577120Y547882D01*
X577182Y547962D01*
X577240Y548045D01*
X577296Y548130D01*
X577348Y548217D01*
X577397Y548305D01*
X577443Y548396D01*
X577485Y548488D01*
X577524Y548581D01*
X577559Y548676D01*
X577591Y548773D01*
X577619Y548870D01*
X577643Y548968D01*
X577664Y549067D01*
X577681Y549167D01*
X577694Y549268D01*
X577703Y549369D01*
X577709Y549470D01*
X577711Y549571D01*
X577712Y549571D02*
X577712Y554087D01*
X577711Y554087D02*
X577709Y554206D01*
X577703Y554326D01*
X577693Y554445D01*
X577679Y554563D01*
X577662Y554682D01*
X577640Y554799D01*
X577615Y554916D01*
X577585Y555031D01*
X577552Y555146D01*
X577515Y555260D01*
X577475Y555372D01*
X577430Y555483D01*
X577382Y555592D01*
X577331Y555700D01*
X577276Y555806D01*
X577217Y555910D01*
X577155Y556012D01*
X577090Y556112D01*
X577021Y556210D01*
X576949Y556306D01*
X576874Y556399D01*
X576797Y556489D01*
X576716Y556577D01*
X576632Y556662D01*
X576545Y556744D01*
X576456Y556824D01*
X576364Y556900D01*
X576270Y556974D01*
X576173Y557044D01*
X576075Y557111D01*
X575974Y557175D01*
X575870Y557235D01*
X575765Y557292D01*
X575658Y557345D01*
X575550Y557395D01*
X575440Y557441D01*
X575328Y557483D01*
X575215Y557522D01*
X575101Y557557D01*
X574986Y557588D01*
X574869Y557616D01*
X574752Y557639D01*
X574635Y557659D01*
X574516Y557675D01*
X574397Y557687D01*
X574278Y557695D01*
X574159Y557699D01*
X574039Y557699D01*
X573920Y557695D01*
X573801Y557687D01*
X573682Y557675D01*
X573563Y557659D01*
X573446Y557639D01*
X573329Y557616D01*
X573212Y557588D01*
X573097Y557557D01*
X572983Y557522D01*
X572870Y557483D01*
X572758Y557441D01*
X572648Y557395D01*
X572540Y557345D01*
X572433Y557292D01*
X572328Y557235D01*
X572224Y557175D01*
X572123Y557111D01*
X572025Y557044D01*
X571928Y556974D01*
X571834Y556900D01*
X571742Y556824D01*
X571653Y556744D01*
X571566Y556662D01*
X571482Y556577D01*
X571401Y556489D01*
X571324Y556399D01*
X571249Y556306D01*
X571177Y556210D01*
X571108Y556112D01*
X571043Y556012D01*
X570981Y555910D01*
X570922Y555806D01*
X570867Y555700D01*
X570816Y555592D01*
X570768Y555483D01*
X570723Y555372D01*
X570683Y555260D01*
X570646Y555146D01*
X570613Y555031D01*
X570583Y554916D01*
X570558Y554799D01*
X570536Y554682D01*
X570519Y554563D01*
X570505Y554445D01*
X570495Y554326D01*
X570489Y554206D01*
X570487Y554087D01*
X570487Y552281D01*
X577712Y552281D01*
X550791Y546862D02*
X550673Y546864D01*
X550555Y546870D01*
X550437Y546879D01*
X550320Y546893D01*
X550203Y546910D01*
X550086Y546931D01*
X549971Y546956D01*
X549856Y546985D01*
X549742Y547018D01*
X549630Y547054D01*
X549519Y547094D01*
X549409Y547137D01*
X549300Y547184D01*
X549193Y547234D01*
X549088Y547289D01*
X548985Y547346D01*
X548884Y547407D01*
X548784Y547471D01*
X548687Y547538D01*
X548592Y547608D01*
X548500Y547682D01*
X548409Y547758D01*
X548322Y547838D01*
X548237Y547920D01*
X548155Y548005D01*
X548075Y548092D01*
X547999Y548183D01*
X547925Y548275D01*
X547855Y548370D01*
X547788Y548467D01*
X547724Y548567D01*
X547663Y548668D01*
X547606Y548771D01*
X547551Y548876D01*
X547501Y548983D01*
X547454Y549092D01*
X547411Y549202D01*
X547371Y549313D01*
X547335Y549425D01*
X547302Y549539D01*
X547273Y549654D01*
X547248Y549769D01*
X547227Y549886D01*
X547210Y550003D01*
X547196Y550120D01*
X547187Y550238D01*
X547181Y550356D01*
X547179Y550474D01*
X550791Y546862D02*
X550974Y546864D01*
X551156Y546871D01*
X551338Y546882D01*
X551520Y546897D01*
X551702Y546917D01*
X551883Y546941D01*
X552063Y546969D01*
X552243Y547001D01*
X552422Y547038D01*
X552599Y547079D01*
X552776Y547125D01*
X552952Y547174D01*
X553127Y547228D01*
X553300Y547286D01*
X553471Y547348D01*
X553642Y547414D01*
X553810Y547485D01*
X553977Y547559D01*
X554142Y547637D01*
X554305Y547719D01*
X554466Y547805D01*
X554625Y547895D01*
X554782Y547989D01*
X554936Y548086D01*
X555088Y548187D01*
X555238Y548292D01*
X555385Y548400D01*
X555529Y548511D01*
X555671Y548626D01*
X555810Y548745D01*
X555946Y548867D01*
X556079Y548992D01*
X556209Y549120D01*
X555758Y559506D02*
X555756Y559624D01*
X555750Y559742D01*
X555741Y559860D01*
X555727Y559977D01*
X555710Y560094D01*
X555689Y560211D01*
X555664Y560326D01*
X555635Y560441D01*
X555602Y560555D01*
X555566Y560667D01*
X555526Y560778D01*
X555483Y560888D01*
X555436Y560997D01*
X555386Y561104D01*
X555331Y561209D01*
X555274Y561312D01*
X555213Y561413D01*
X555149Y561513D01*
X555082Y561610D01*
X555012Y561705D01*
X554938Y561797D01*
X554862Y561888D01*
X554782Y561975D01*
X554700Y562060D01*
X554615Y562142D01*
X554528Y562222D01*
X554437Y562298D01*
X554345Y562372D01*
X554250Y562442D01*
X554153Y562509D01*
X554053Y562573D01*
X553952Y562634D01*
X553849Y562691D01*
X553744Y562746D01*
X553637Y562796D01*
X553528Y562843D01*
X553418Y562886D01*
X553307Y562926D01*
X553195Y562962D01*
X553081Y562995D01*
X552966Y563024D01*
X552851Y563049D01*
X552734Y563070D01*
X552617Y563087D01*
X552500Y563101D01*
X552382Y563110D01*
X552264Y563116D01*
X552146Y563118D01*
X551985Y563116D01*
X551823Y563110D01*
X551662Y563101D01*
X551501Y563087D01*
X551341Y563070D01*
X551181Y563049D01*
X551021Y563024D01*
X550862Y562995D01*
X550704Y562963D01*
X550547Y562927D01*
X550391Y562887D01*
X550235Y562843D01*
X550081Y562795D01*
X549928Y562744D01*
X549776Y562690D01*
X549625Y562631D01*
X549476Y562570D01*
X549329Y562504D01*
X549183Y562435D01*
X549038Y562363D01*
X548896Y562287D01*
X548755Y562208D01*
X548616Y562126D01*
X548480Y562040D01*
X548345Y561951D01*
X548212Y561859D01*
X548082Y561763D01*
X553953Y556345D02*
X554054Y556407D01*
X554154Y556472D01*
X554251Y556541D01*
X554346Y556613D01*
X554439Y556687D01*
X554529Y556765D01*
X554617Y556846D01*
X554702Y556929D01*
X554784Y557015D01*
X554863Y557104D01*
X554940Y557195D01*
X555013Y557289D01*
X555084Y557385D01*
X555151Y557483D01*
X555215Y557583D01*
X555276Y557686D01*
X555333Y557790D01*
X555387Y557896D01*
X555437Y558004D01*
X555484Y558113D01*
X555528Y558224D01*
X555568Y558336D01*
X555604Y558450D01*
X555636Y558564D01*
X555665Y558680D01*
X555690Y558796D01*
X555711Y558913D01*
X555728Y559031D01*
X555742Y559149D01*
X555751Y559268D01*
X555757Y559387D01*
X555759Y559506D01*
X548985Y553635D02*
X548884Y553573D01*
X548784Y553508D01*
X548687Y553439D01*
X548592Y553367D01*
X548499Y553293D01*
X548409Y553215D01*
X548321Y553134D01*
X548236Y553051D01*
X548154Y552965D01*
X548075Y552876D01*
X547998Y552785D01*
X547925Y552691D01*
X547854Y552595D01*
X547787Y552497D01*
X547723Y552397D01*
X547662Y552294D01*
X547605Y552190D01*
X547551Y552084D01*
X547501Y551976D01*
X547454Y551867D01*
X547410Y551756D01*
X547370Y551644D01*
X547334Y551530D01*
X547302Y551416D01*
X547273Y551300D01*
X547248Y551184D01*
X547227Y551067D01*
X547210Y550949D01*
X547196Y550831D01*
X547187Y550712D01*
X547181Y550593D01*
X547179Y550474D01*
X548985Y553635D02*
X553952Y556345D01*
X542536Y557699D02*
X537117Y557699D01*
X540730Y563118D02*
X540730Y549571D01*
X540729Y549571D02*
X540727Y549470D01*
X540721Y549369D01*
X540712Y549268D01*
X540699Y549167D01*
X540682Y549067D01*
X540661Y548968D01*
X540637Y548870D01*
X540609Y548773D01*
X540577Y548676D01*
X540542Y548581D01*
X540503Y548488D01*
X540461Y548396D01*
X540415Y548305D01*
X540366Y548217D01*
X540314Y548130D01*
X540258Y548045D01*
X540200Y547962D01*
X540138Y547882D01*
X540073Y547804D01*
X540006Y547728D01*
X539936Y547655D01*
X539863Y547585D01*
X539787Y547518D01*
X539709Y547453D01*
X539629Y547391D01*
X539546Y547333D01*
X539461Y547277D01*
X539375Y547225D01*
X539286Y547176D01*
X539195Y547130D01*
X539103Y547088D01*
X539010Y547049D01*
X538915Y547014D01*
X538818Y546982D01*
X538721Y546954D01*
X538623Y546930D01*
X538524Y546909D01*
X538424Y546892D01*
X538323Y546879D01*
X538222Y546870D01*
X538121Y546864D01*
X538020Y546862D01*
X537117Y546862D01*
X528251Y553184D02*
X524187Y553184D01*
X528251Y553184D02*
X528363Y553182D01*
X528474Y553176D01*
X528585Y553166D01*
X528696Y553153D01*
X528806Y553135D01*
X528915Y553113D01*
X529024Y553088D01*
X529132Y553059D01*
X529238Y553026D01*
X529344Y552989D01*
X529448Y552949D01*
X529550Y552905D01*
X529651Y552857D01*
X529750Y552806D01*
X529848Y552751D01*
X529943Y552693D01*
X530036Y552632D01*
X530127Y552567D01*
X530216Y552499D01*
X530302Y552428D01*
X530385Y552355D01*
X530466Y552278D01*
X530545Y552198D01*
X530620Y552116D01*
X530692Y552031D01*
X530762Y551944D01*
X530828Y551854D01*
X530891Y551762D01*
X530951Y551667D01*
X531007Y551571D01*
X531060Y551473D01*
X531109Y551373D01*
X531155Y551271D01*
X531197Y551168D01*
X531236Y551063D01*
X531271Y550957D01*
X531302Y550850D01*
X531329Y550742D01*
X531353Y550633D01*
X531372Y550523D01*
X531388Y550413D01*
X531400Y550302D01*
X531408Y550190D01*
X531412Y550079D01*
X531412Y549967D01*
X531408Y549856D01*
X531400Y549744D01*
X531388Y549633D01*
X531372Y549523D01*
X531353Y549413D01*
X531329Y549304D01*
X531302Y549196D01*
X531271Y549089D01*
X531236Y548983D01*
X531197Y548878D01*
X531155Y548775D01*
X531109Y548673D01*
X531060Y548573D01*
X531007Y548475D01*
X530951Y548379D01*
X530891Y548284D01*
X530828Y548192D01*
X530762Y548102D01*
X530692Y548015D01*
X530620Y547930D01*
X530545Y547848D01*
X530466Y547768D01*
X530385Y547691D01*
X530302Y547618D01*
X530216Y547547D01*
X530127Y547479D01*
X530036Y547414D01*
X529943Y547353D01*
X529848Y547295D01*
X529750Y547240D01*
X529651Y547189D01*
X529550Y547141D01*
X529448Y547097D01*
X529344Y547057D01*
X529238Y547020D01*
X529132Y546987D01*
X529024Y546958D01*
X528915Y546933D01*
X528806Y546911D01*
X528696Y546893D01*
X528585Y546880D01*
X528474Y546870D01*
X528363Y546864D01*
X528251Y546862D01*
X524187Y546862D01*
X524187Y554990D01*
X524188Y554990D02*
X524190Y555091D01*
X524196Y555192D01*
X524205Y555293D01*
X524218Y555394D01*
X524235Y555494D01*
X524256Y555593D01*
X524280Y555691D01*
X524308Y555788D01*
X524340Y555885D01*
X524375Y555980D01*
X524414Y556073D01*
X524456Y556165D01*
X524502Y556256D01*
X524551Y556345D01*
X524603Y556431D01*
X524659Y556516D01*
X524717Y556599D01*
X524779Y556679D01*
X524844Y556757D01*
X524911Y556833D01*
X524981Y556906D01*
X525054Y556976D01*
X525130Y557043D01*
X525208Y557108D01*
X525288Y557170D01*
X525371Y557228D01*
X525456Y557284D01*
X525543Y557336D01*
X525631Y557385D01*
X525722Y557431D01*
X525814Y557473D01*
X525907Y557512D01*
X526002Y557547D01*
X526099Y557579D01*
X526196Y557607D01*
X526294Y557631D01*
X526393Y557652D01*
X526493Y557669D01*
X526594Y557682D01*
X526695Y557691D01*
X526796Y557697D01*
X526897Y557699D01*
X530509Y557699D01*
X516665Y557699D02*
X516665Y546862D01*
X516665Y557699D02*
X511246Y557699D01*
X511246Y555893D01*
X504974Y553184D02*
X500459Y551378D01*
X504975Y553184D02*
X505063Y553221D01*
X505149Y553262D01*
X505234Y553306D01*
X505317Y553354D01*
X505397Y553405D01*
X505476Y553459D01*
X505552Y553517D01*
X505626Y553577D01*
X505698Y553641D01*
X505766Y553707D01*
X505832Y553777D01*
X505895Y553848D01*
X505956Y553923D01*
X506013Y553999D01*
X506066Y554078D01*
X506117Y554159D01*
X506164Y554242D01*
X506208Y554327D01*
X506248Y554414D01*
X506285Y554502D01*
X506318Y554592D01*
X506348Y554683D01*
X506373Y554775D01*
X506395Y554868D01*
X506413Y554962D01*
X506428Y555056D01*
X506438Y555151D01*
X506444Y555247D01*
X506447Y555342D01*
X506446Y555438D01*
X506440Y555533D01*
X506431Y555629D01*
X506418Y555723D01*
X506402Y555817D01*
X506381Y555911D01*
X506356Y556003D01*
X506328Y556094D01*
X506296Y556184D01*
X506261Y556273D01*
X506222Y556360D01*
X506179Y556446D01*
X506133Y556530D01*
X506083Y556611D01*
X506031Y556691D01*
X505975Y556769D01*
X505915Y556844D01*
X505853Y556916D01*
X505788Y556986D01*
X505720Y557054D01*
X505650Y557118D01*
X505577Y557180D01*
X505501Y557238D01*
X505423Y557294D01*
X505343Y557346D01*
X505261Y557395D01*
X505177Y557440D01*
X505091Y557482D01*
X505004Y557521D01*
X504915Y557556D01*
X504824Y557587D01*
X504733Y557614D01*
X504640Y557638D01*
X504547Y557658D01*
X504453Y557674D01*
X504358Y557686D01*
X504263Y557695D01*
X504167Y557699D01*
X504072Y557700D01*
X503825Y557693D01*
X503579Y557681D01*
X503333Y557663D01*
X503087Y557638D01*
X502843Y557608D01*
X502599Y557572D01*
X502356Y557531D01*
X502114Y557483D01*
X501873Y557429D01*
X501634Y557370D01*
X501396Y557305D01*
X501160Y557234D01*
X500925Y557158D01*
X500692Y557076D01*
X500462Y556988D01*
X500234Y556895D01*
X500007Y556797D01*
X500458Y551377D02*
X500370Y551340D01*
X500284Y551299D01*
X500199Y551255D01*
X500116Y551207D01*
X500036Y551156D01*
X499957Y551102D01*
X499881Y551044D01*
X499807Y550984D01*
X499735Y550920D01*
X499667Y550854D01*
X499601Y550784D01*
X499538Y550713D01*
X499477Y550638D01*
X499420Y550562D01*
X499367Y550483D01*
X499316Y550402D01*
X499269Y550319D01*
X499225Y550234D01*
X499185Y550147D01*
X499148Y550059D01*
X499115Y549969D01*
X499085Y549878D01*
X499060Y549786D01*
X499038Y549693D01*
X499020Y549599D01*
X499005Y549505D01*
X498995Y549410D01*
X498989Y549314D01*
X498986Y549219D01*
X498987Y549123D01*
X498993Y549028D01*
X499002Y548932D01*
X499015Y548838D01*
X499031Y548744D01*
X499052Y548650D01*
X499077Y548558D01*
X499105Y548467D01*
X499137Y548377D01*
X499172Y548288D01*
X499211Y548201D01*
X499254Y548115D01*
X499300Y548031D01*
X499350Y547950D01*
X499402Y547870D01*
X499458Y547792D01*
X499518Y547717D01*
X499580Y547645D01*
X499645Y547575D01*
X499713Y547507D01*
X499783Y547443D01*
X499856Y547381D01*
X499932Y547323D01*
X500010Y547267D01*
X500090Y547215D01*
X500172Y547166D01*
X500256Y547121D01*
X500342Y547079D01*
X500429Y547040D01*
X500518Y547005D01*
X500609Y546974D01*
X500700Y546947D01*
X500793Y546923D01*
X500886Y546903D01*
X500980Y546887D01*
X501075Y546875D01*
X501170Y546866D01*
X501266Y546862D01*
X501361Y546861D01*
X501362Y546862D02*
X501724Y546871D01*
X502086Y546889D01*
X502447Y546916D01*
X502807Y546951D01*
X503167Y546994D01*
X503526Y547046D01*
X503883Y547107D01*
X504238Y547176D01*
X504592Y547253D01*
X504944Y547339D01*
X505294Y547433D01*
X505642Y547536D01*
X505987Y547646D01*
X506329Y547765D01*
X492817Y552281D02*
X492817Y563118D01*
X493268Y547765D02*
X493268Y546862D01*
X493268Y547765D02*
X492365Y547765D01*
X492365Y546862D01*
X493268Y546862D01*
X482600Y731520D02*
X482600Y736600D01*
X487680Y736600D01*
X502920Y736600D02*
X508000Y736600D01*
X508000Y731520D01*
X508000Y716280D02*
X508000Y711200D01*
X502920Y711200D01*
X487680Y711200D02*
X482600Y711200D01*
X482600Y716280D01*
X485140Y723900D02*
X485143Y724149D01*
X485152Y724399D01*
X485168Y724647D01*
X485189Y724896D01*
X485216Y725144D01*
X485250Y725391D01*
X485290Y725637D01*
X485335Y725882D01*
X485387Y726126D01*
X485444Y726369D01*
X485508Y726610D01*
X485577Y726849D01*
X485653Y727087D01*
X485734Y727323D01*
X485821Y727557D01*
X485913Y727788D01*
X486012Y728017D01*
X486115Y728244D01*
X486225Y728468D01*
X486340Y728689D01*
X486460Y728908D01*
X486585Y729123D01*
X486716Y729336D01*
X486852Y729545D01*
X486993Y729750D01*
X487139Y729952D01*
X487290Y730151D01*
X487446Y730345D01*
X487607Y730536D01*
X487772Y730723D01*
X487942Y730906D01*
X488116Y731084D01*
X488294Y731258D01*
X488477Y731428D01*
X488664Y731593D01*
X488855Y731754D01*
X489049Y731910D01*
X489248Y732061D01*
X489450Y732207D01*
X489655Y732348D01*
X489864Y732484D01*
X490077Y732615D01*
X490292Y732740D01*
X490511Y732860D01*
X490732Y732975D01*
X490956Y733085D01*
X491183Y733188D01*
X491412Y733287D01*
X491643Y733379D01*
X491877Y733466D01*
X492113Y733547D01*
X492351Y733623D01*
X492590Y733692D01*
X492831Y733756D01*
X493074Y733813D01*
X493318Y733865D01*
X493563Y733910D01*
X493809Y733950D01*
X494056Y733984D01*
X494304Y734011D01*
X494553Y734032D01*
X494801Y734048D01*
X495051Y734057D01*
X495300Y734060D01*
X495549Y734057D01*
X495799Y734048D01*
X496047Y734032D01*
X496296Y734011D01*
X496544Y733984D01*
X496791Y733950D01*
X497037Y733910D01*
X497282Y733865D01*
X497526Y733813D01*
X497769Y733756D01*
X498010Y733692D01*
X498249Y733623D01*
X498487Y733547D01*
X498723Y733466D01*
X498957Y733379D01*
X499188Y733287D01*
X499417Y733188D01*
X499644Y733085D01*
X499868Y732975D01*
X500089Y732860D01*
X500308Y732740D01*
X500523Y732615D01*
X500736Y732484D01*
X500945Y732348D01*
X501150Y732207D01*
X501352Y732061D01*
X501551Y731910D01*
X501745Y731754D01*
X501936Y731593D01*
X502123Y731428D01*
X502306Y731258D01*
X502484Y731084D01*
X502658Y730906D01*
X502828Y730723D01*
X502993Y730536D01*
X503154Y730345D01*
X503310Y730151D01*
X503461Y729952D01*
X503607Y729750D01*
X503748Y729545D01*
X503884Y729336D01*
X504015Y729123D01*
X504140Y728908D01*
X504260Y728689D01*
X504375Y728468D01*
X504485Y728244D01*
X504588Y728017D01*
X504687Y727788D01*
X504779Y727557D01*
X504866Y727323D01*
X504947Y727087D01*
X505023Y726849D01*
X505092Y726610D01*
X505156Y726369D01*
X505213Y726126D01*
X505265Y725882D01*
X505310Y725637D01*
X505350Y725391D01*
X505384Y725144D01*
X505411Y724896D01*
X505432Y724647D01*
X505448Y724399D01*
X505457Y724149D01*
X505460Y723900D01*
X505457Y723651D01*
X505448Y723401D01*
X505432Y723153D01*
X505411Y722904D01*
X505384Y722656D01*
X505350Y722409D01*
X505310Y722163D01*
X505265Y721918D01*
X505213Y721674D01*
X505156Y721431D01*
X505092Y721190D01*
X505023Y720951D01*
X504947Y720713D01*
X504866Y720477D01*
X504779Y720243D01*
X504687Y720012D01*
X504588Y719783D01*
X504485Y719556D01*
X504375Y719332D01*
X504260Y719111D01*
X504140Y718892D01*
X504015Y718677D01*
X503884Y718464D01*
X503748Y718255D01*
X503607Y718050D01*
X503461Y717848D01*
X503310Y717649D01*
X503154Y717455D01*
X502993Y717264D01*
X502828Y717077D01*
X502658Y716894D01*
X502484Y716716D01*
X502306Y716542D01*
X502123Y716372D01*
X501936Y716207D01*
X501745Y716046D01*
X501551Y715890D01*
X501352Y715739D01*
X501150Y715593D01*
X500945Y715452D01*
X500736Y715316D01*
X500523Y715185D01*
X500308Y715060D01*
X500089Y714940D01*
X499868Y714825D01*
X499644Y714715D01*
X499417Y714612D01*
X499188Y714513D01*
X498957Y714421D01*
X498723Y714334D01*
X498487Y714253D01*
X498249Y714177D01*
X498010Y714108D01*
X497769Y714044D01*
X497526Y713987D01*
X497282Y713935D01*
X497037Y713890D01*
X496791Y713850D01*
X496544Y713816D01*
X496296Y713789D01*
X496047Y713768D01*
X495799Y713752D01*
X495549Y713743D01*
X495300Y713740D01*
X495051Y713743D01*
X494801Y713752D01*
X494553Y713768D01*
X494304Y713789D01*
X494056Y713816D01*
X493809Y713850D01*
X493563Y713890D01*
X493318Y713935D01*
X493074Y713987D01*
X492831Y714044D01*
X492590Y714108D01*
X492351Y714177D01*
X492113Y714253D01*
X491877Y714334D01*
X491643Y714421D01*
X491412Y714513D01*
X491183Y714612D01*
X490956Y714715D01*
X490732Y714825D01*
X490511Y714940D01*
X490292Y715060D01*
X490077Y715185D01*
X489864Y715316D01*
X489655Y715452D01*
X489450Y715593D01*
X489248Y715739D01*
X489049Y715890D01*
X488855Y716046D01*
X488664Y716207D01*
X488477Y716372D01*
X488294Y716542D01*
X488116Y716716D01*
X487942Y716894D01*
X487772Y717077D01*
X487607Y717264D01*
X487446Y717455D01*
X487290Y717649D01*
X487139Y717848D01*
X486993Y718050D01*
X486852Y718255D01*
X486716Y718464D01*
X486585Y718677D01*
X486460Y718892D01*
X486340Y719111D01*
X486225Y719332D01*
X486115Y719556D01*
X486012Y719783D01*
X485913Y720012D01*
X485821Y720243D01*
X485734Y720477D01*
X485653Y720713D01*
X485577Y720951D01*
X485508Y721190D01*
X485444Y721431D01*
X485387Y721674D01*
X485335Y721918D01*
X485290Y722163D01*
X485250Y722409D01*
X485216Y722656D01*
X485189Y722904D01*
X485168Y723153D01*
X485152Y723401D01*
X485143Y723651D01*
X485140Y723900D01*
X482600Y508000D02*
X482600Y502920D01*
X482600Y508000D02*
X487680Y508000D01*
X502920Y508000D02*
X508000Y508000D01*
X508000Y502920D01*
X508000Y487680D02*
X508000Y482600D01*
X502920Y482600D01*
X487680Y482600D02*
X482600Y482600D01*
X482600Y487680D01*
X485140Y495300D02*
X485143Y495549D01*
X485152Y495799D01*
X485168Y496047D01*
X485189Y496296D01*
X485216Y496544D01*
X485250Y496791D01*
X485290Y497037D01*
X485335Y497282D01*
X485387Y497526D01*
X485444Y497769D01*
X485508Y498010D01*
X485577Y498249D01*
X485653Y498487D01*
X485734Y498723D01*
X485821Y498957D01*
X485913Y499188D01*
X486012Y499417D01*
X486115Y499644D01*
X486225Y499868D01*
X486340Y500089D01*
X486460Y500308D01*
X486585Y500523D01*
X486716Y500736D01*
X486852Y500945D01*
X486993Y501150D01*
X487139Y501352D01*
X487290Y501551D01*
X487446Y501745D01*
X487607Y501936D01*
X487772Y502123D01*
X487942Y502306D01*
X488116Y502484D01*
X488294Y502658D01*
X488477Y502828D01*
X488664Y502993D01*
X488855Y503154D01*
X489049Y503310D01*
X489248Y503461D01*
X489450Y503607D01*
X489655Y503748D01*
X489864Y503884D01*
X490077Y504015D01*
X490292Y504140D01*
X490511Y504260D01*
X490732Y504375D01*
X490956Y504485D01*
X491183Y504588D01*
X491412Y504687D01*
X491643Y504779D01*
X491877Y504866D01*
X492113Y504947D01*
X492351Y505023D01*
X492590Y505092D01*
X492831Y505156D01*
X493074Y505213D01*
X493318Y505265D01*
X493563Y505310D01*
X493809Y505350D01*
X494056Y505384D01*
X494304Y505411D01*
X494553Y505432D01*
X494801Y505448D01*
X495051Y505457D01*
X495300Y505460D01*
X495549Y505457D01*
X495799Y505448D01*
X496047Y505432D01*
X496296Y505411D01*
X496544Y505384D01*
X496791Y505350D01*
X497037Y505310D01*
X497282Y505265D01*
X497526Y505213D01*
X497769Y505156D01*
X498010Y505092D01*
X498249Y505023D01*
X498487Y504947D01*
X498723Y504866D01*
X498957Y504779D01*
X499188Y504687D01*
X499417Y504588D01*
X499644Y504485D01*
X499868Y504375D01*
X500089Y504260D01*
X500308Y504140D01*
X500523Y504015D01*
X500736Y503884D01*
X500945Y503748D01*
X501150Y503607D01*
X501352Y503461D01*
X501551Y503310D01*
X501745Y503154D01*
X501936Y502993D01*
X502123Y502828D01*
X502306Y502658D01*
X502484Y502484D01*
X502658Y502306D01*
X502828Y502123D01*
X502993Y501936D01*
X503154Y501745D01*
X503310Y501551D01*
X503461Y501352D01*
X503607Y501150D01*
X503748Y500945D01*
X503884Y500736D01*
X504015Y500523D01*
X504140Y500308D01*
X504260Y500089D01*
X504375Y499868D01*
X504485Y499644D01*
X504588Y499417D01*
X504687Y499188D01*
X504779Y498957D01*
X504866Y498723D01*
X504947Y498487D01*
X505023Y498249D01*
X505092Y498010D01*
X505156Y497769D01*
X505213Y497526D01*
X505265Y497282D01*
X505310Y497037D01*
X505350Y496791D01*
X505384Y496544D01*
X505411Y496296D01*
X505432Y496047D01*
X505448Y495799D01*
X505457Y495549D01*
X505460Y495300D01*
X505457Y495051D01*
X505448Y494801D01*
X505432Y494553D01*
X505411Y494304D01*
X505384Y494056D01*
X505350Y493809D01*
X505310Y493563D01*
X505265Y493318D01*
X505213Y493074D01*
X505156Y492831D01*
X505092Y492590D01*
X505023Y492351D01*
X504947Y492113D01*
X504866Y491877D01*
X504779Y491643D01*
X504687Y491412D01*
X504588Y491183D01*
X504485Y490956D01*
X504375Y490732D01*
X504260Y490511D01*
X504140Y490292D01*
X504015Y490077D01*
X503884Y489864D01*
X503748Y489655D01*
X503607Y489450D01*
X503461Y489248D01*
X503310Y489049D01*
X503154Y488855D01*
X502993Y488664D01*
X502828Y488477D01*
X502658Y488294D01*
X502484Y488116D01*
X502306Y487942D01*
X502123Y487772D01*
X501936Y487607D01*
X501745Y487446D01*
X501551Y487290D01*
X501352Y487139D01*
X501150Y486993D01*
X500945Y486852D01*
X500736Y486716D01*
X500523Y486585D01*
X500308Y486460D01*
X500089Y486340D01*
X499868Y486225D01*
X499644Y486115D01*
X499417Y486012D01*
X499188Y485913D01*
X498957Y485821D01*
X498723Y485734D01*
X498487Y485653D01*
X498249Y485577D01*
X498010Y485508D01*
X497769Y485444D01*
X497526Y485387D01*
X497282Y485335D01*
X497037Y485290D01*
X496791Y485250D01*
X496544Y485216D01*
X496296Y485189D01*
X496047Y485168D01*
X495799Y485152D01*
X495549Y485143D01*
X495300Y485140D01*
X495051Y485143D01*
X494801Y485152D01*
X494553Y485168D01*
X494304Y485189D01*
X494056Y485216D01*
X493809Y485250D01*
X493563Y485290D01*
X493318Y485335D01*
X493074Y485387D01*
X492831Y485444D01*
X492590Y485508D01*
X492351Y485577D01*
X492113Y485653D01*
X491877Y485734D01*
X491643Y485821D01*
X491412Y485913D01*
X491183Y486012D01*
X490956Y486115D01*
X490732Y486225D01*
X490511Y486340D01*
X490292Y486460D01*
X490077Y486585D01*
X489864Y486716D01*
X489655Y486852D01*
X489450Y486993D01*
X489248Y487139D01*
X489049Y487290D01*
X488855Y487446D01*
X488664Y487607D01*
X488477Y487772D01*
X488294Y487942D01*
X488116Y488116D01*
X487942Y488294D01*
X487772Y488477D01*
X487607Y488664D01*
X487446Y488855D01*
X487290Y489049D01*
X487139Y489248D01*
X486993Y489450D01*
X486852Y489655D01*
X486716Y489864D01*
X486585Y490077D01*
X486460Y490292D01*
X486340Y490511D01*
X486225Y490732D01*
X486115Y490956D01*
X486012Y491183D01*
X485913Y491412D01*
X485821Y491643D01*
X485734Y491877D01*
X485653Y492113D01*
X485577Y492351D01*
X485508Y492590D01*
X485444Y492831D01*
X485387Y493074D01*
X485335Y493318D01*
X485290Y493563D01*
X485250Y493809D01*
X485216Y494056D01*
X485189Y494304D01*
X485168Y494553D01*
X485152Y494801D01*
X485143Y495051D01*
X485140Y495300D01*
X698500Y731520D02*
X698500Y736600D01*
X703580Y736600D01*
X718820Y736600D02*
X723900Y736600D01*
X723900Y731520D01*
X723900Y716280D02*
X723900Y711200D01*
X718820Y711200D01*
X703580Y711200D02*
X698500Y711200D01*
X698500Y716280D01*
X701040Y723900D02*
X701043Y724149D01*
X701052Y724399D01*
X701068Y724647D01*
X701089Y724896D01*
X701116Y725144D01*
X701150Y725391D01*
X701190Y725637D01*
X701235Y725882D01*
X701287Y726126D01*
X701344Y726369D01*
X701408Y726610D01*
X701477Y726849D01*
X701553Y727087D01*
X701634Y727323D01*
X701721Y727557D01*
X701813Y727788D01*
X701912Y728017D01*
X702015Y728244D01*
X702125Y728468D01*
X702240Y728689D01*
X702360Y728908D01*
X702485Y729123D01*
X702616Y729336D01*
X702752Y729545D01*
X702893Y729750D01*
X703039Y729952D01*
X703190Y730151D01*
X703346Y730345D01*
X703507Y730536D01*
X703672Y730723D01*
X703842Y730906D01*
X704016Y731084D01*
X704194Y731258D01*
X704377Y731428D01*
X704564Y731593D01*
X704755Y731754D01*
X704949Y731910D01*
X705148Y732061D01*
X705350Y732207D01*
X705555Y732348D01*
X705764Y732484D01*
X705977Y732615D01*
X706192Y732740D01*
X706411Y732860D01*
X706632Y732975D01*
X706856Y733085D01*
X707083Y733188D01*
X707312Y733287D01*
X707543Y733379D01*
X707777Y733466D01*
X708013Y733547D01*
X708251Y733623D01*
X708490Y733692D01*
X708731Y733756D01*
X708974Y733813D01*
X709218Y733865D01*
X709463Y733910D01*
X709709Y733950D01*
X709956Y733984D01*
X710204Y734011D01*
X710453Y734032D01*
X710701Y734048D01*
X710951Y734057D01*
X711200Y734060D01*
X711449Y734057D01*
X711699Y734048D01*
X711947Y734032D01*
X712196Y734011D01*
X712444Y733984D01*
X712691Y733950D01*
X712937Y733910D01*
X713182Y733865D01*
X713426Y733813D01*
X713669Y733756D01*
X713910Y733692D01*
X714149Y733623D01*
X714387Y733547D01*
X714623Y733466D01*
X714857Y733379D01*
X715088Y733287D01*
X715317Y733188D01*
X715544Y733085D01*
X715768Y732975D01*
X715989Y732860D01*
X716208Y732740D01*
X716423Y732615D01*
X716636Y732484D01*
X716845Y732348D01*
X717050Y732207D01*
X717252Y732061D01*
X717451Y731910D01*
X717645Y731754D01*
X717836Y731593D01*
X718023Y731428D01*
X718206Y731258D01*
X718384Y731084D01*
X718558Y730906D01*
X718728Y730723D01*
X718893Y730536D01*
X719054Y730345D01*
X719210Y730151D01*
X719361Y729952D01*
X719507Y729750D01*
X719648Y729545D01*
X719784Y729336D01*
X719915Y729123D01*
X720040Y728908D01*
X720160Y728689D01*
X720275Y728468D01*
X720385Y728244D01*
X720488Y728017D01*
X720587Y727788D01*
X720679Y727557D01*
X720766Y727323D01*
X720847Y727087D01*
X720923Y726849D01*
X720992Y726610D01*
X721056Y726369D01*
X721113Y726126D01*
X721165Y725882D01*
X721210Y725637D01*
X721250Y725391D01*
X721284Y725144D01*
X721311Y724896D01*
X721332Y724647D01*
X721348Y724399D01*
X721357Y724149D01*
X721360Y723900D01*
X721357Y723651D01*
X721348Y723401D01*
X721332Y723153D01*
X721311Y722904D01*
X721284Y722656D01*
X721250Y722409D01*
X721210Y722163D01*
X721165Y721918D01*
X721113Y721674D01*
X721056Y721431D01*
X720992Y721190D01*
X720923Y720951D01*
X720847Y720713D01*
X720766Y720477D01*
X720679Y720243D01*
X720587Y720012D01*
X720488Y719783D01*
X720385Y719556D01*
X720275Y719332D01*
X720160Y719111D01*
X720040Y718892D01*
X719915Y718677D01*
X719784Y718464D01*
X719648Y718255D01*
X719507Y718050D01*
X719361Y717848D01*
X719210Y717649D01*
X719054Y717455D01*
X718893Y717264D01*
X718728Y717077D01*
X718558Y716894D01*
X718384Y716716D01*
X718206Y716542D01*
X718023Y716372D01*
X717836Y716207D01*
X717645Y716046D01*
X717451Y715890D01*
X717252Y715739D01*
X717050Y715593D01*
X716845Y715452D01*
X716636Y715316D01*
X716423Y715185D01*
X716208Y715060D01*
X715989Y714940D01*
X715768Y714825D01*
X715544Y714715D01*
X715317Y714612D01*
X715088Y714513D01*
X714857Y714421D01*
X714623Y714334D01*
X714387Y714253D01*
X714149Y714177D01*
X713910Y714108D01*
X713669Y714044D01*
X713426Y713987D01*
X713182Y713935D01*
X712937Y713890D01*
X712691Y713850D01*
X712444Y713816D01*
X712196Y713789D01*
X711947Y713768D01*
X711699Y713752D01*
X711449Y713743D01*
X711200Y713740D01*
X710951Y713743D01*
X710701Y713752D01*
X710453Y713768D01*
X710204Y713789D01*
X709956Y713816D01*
X709709Y713850D01*
X709463Y713890D01*
X709218Y713935D01*
X708974Y713987D01*
X708731Y714044D01*
X708490Y714108D01*
X708251Y714177D01*
X708013Y714253D01*
X707777Y714334D01*
X707543Y714421D01*
X707312Y714513D01*
X707083Y714612D01*
X706856Y714715D01*
X706632Y714825D01*
X706411Y714940D01*
X706192Y715060D01*
X705977Y715185D01*
X705764Y715316D01*
X705555Y715452D01*
X705350Y715593D01*
X705148Y715739D01*
X704949Y715890D01*
X704755Y716046D01*
X704564Y716207D01*
X704377Y716372D01*
X704194Y716542D01*
X704016Y716716D01*
X703842Y716894D01*
X703672Y717077D01*
X703507Y717264D01*
X703346Y717455D01*
X703190Y717649D01*
X703039Y717848D01*
X702893Y718050D01*
X702752Y718255D01*
X702616Y718464D01*
X702485Y718677D01*
X702360Y718892D01*
X702240Y719111D01*
X702125Y719332D01*
X702015Y719556D01*
X701912Y719783D01*
X701813Y720012D01*
X701721Y720243D01*
X701634Y720477D01*
X701553Y720713D01*
X701477Y720951D01*
X701408Y721190D01*
X701344Y721431D01*
X701287Y721674D01*
X701235Y721918D01*
X701190Y722163D01*
X701150Y722409D01*
X701116Y722656D01*
X701089Y722904D01*
X701068Y723153D01*
X701052Y723401D01*
X701043Y723651D01*
X701040Y723900D01*
X698500Y508000D02*
X698500Y502920D01*
X698500Y508000D02*
X703580Y508000D01*
X718820Y508000D02*
X723900Y508000D01*
X723900Y502920D01*
X723900Y487680D02*
X723900Y482600D01*
X718820Y482600D01*
X703580Y482600D02*
X698500Y482600D01*
X698500Y487680D01*
X701040Y495300D02*
X701043Y495549D01*
X701052Y495799D01*
X701068Y496047D01*
X701089Y496296D01*
X701116Y496544D01*
X701150Y496791D01*
X701190Y497037D01*
X701235Y497282D01*
X701287Y497526D01*
X701344Y497769D01*
X701408Y498010D01*
X701477Y498249D01*
X701553Y498487D01*
X701634Y498723D01*
X701721Y498957D01*
X701813Y499188D01*
X701912Y499417D01*
X702015Y499644D01*
X702125Y499868D01*
X702240Y500089D01*
X702360Y500308D01*
X702485Y500523D01*
X702616Y500736D01*
X702752Y500945D01*
X702893Y501150D01*
X703039Y501352D01*
X703190Y501551D01*
X703346Y501745D01*
X703507Y501936D01*
X703672Y502123D01*
X703842Y502306D01*
X704016Y502484D01*
X704194Y502658D01*
X704377Y502828D01*
X704564Y502993D01*
X704755Y503154D01*
X704949Y503310D01*
X705148Y503461D01*
X705350Y503607D01*
X705555Y503748D01*
X705764Y503884D01*
X705977Y504015D01*
X706192Y504140D01*
X706411Y504260D01*
X706632Y504375D01*
X706856Y504485D01*
X707083Y504588D01*
X707312Y504687D01*
X707543Y504779D01*
X707777Y504866D01*
X708013Y504947D01*
X708251Y505023D01*
X708490Y505092D01*
X708731Y505156D01*
X708974Y505213D01*
X709218Y505265D01*
X709463Y505310D01*
X709709Y505350D01*
X709956Y505384D01*
X710204Y505411D01*
X710453Y505432D01*
X710701Y505448D01*
X710951Y505457D01*
X711200Y505460D01*
X711449Y505457D01*
X711699Y505448D01*
X711947Y505432D01*
X712196Y505411D01*
X712444Y505384D01*
X712691Y505350D01*
X712937Y505310D01*
X713182Y505265D01*
X713426Y505213D01*
X713669Y505156D01*
X713910Y505092D01*
X714149Y505023D01*
X714387Y504947D01*
X714623Y504866D01*
X714857Y504779D01*
X715088Y504687D01*
X715317Y504588D01*
X715544Y504485D01*
X715768Y504375D01*
X715989Y504260D01*
X716208Y504140D01*
X716423Y504015D01*
X716636Y503884D01*
X716845Y503748D01*
X717050Y503607D01*
X717252Y503461D01*
X717451Y503310D01*
X717645Y503154D01*
X717836Y502993D01*
X718023Y502828D01*
X718206Y502658D01*
X718384Y502484D01*
X718558Y502306D01*
X718728Y502123D01*
X718893Y501936D01*
X719054Y501745D01*
X719210Y501551D01*
X719361Y501352D01*
X719507Y501150D01*
X719648Y500945D01*
X719784Y500736D01*
X719915Y500523D01*
X720040Y500308D01*
X720160Y500089D01*
X720275Y499868D01*
X720385Y499644D01*
X720488Y499417D01*
X720587Y499188D01*
X720679Y498957D01*
X720766Y498723D01*
X720847Y498487D01*
X720923Y498249D01*
X720992Y498010D01*
X721056Y497769D01*
X721113Y497526D01*
X721165Y497282D01*
X721210Y497037D01*
X721250Y496791D01*
X721284Y496544D01*
X721311Y496296D01*
X721332Y496047D01*
X721348Y495799D01*
X721357Y495549D01*
X721360Y495300D01*
X721357Y495051D01*
X721348Y494801D01*
X721332Y494553D01*
X721311Y494304D01*
X721284Y494056D01*
X721250Y493809D01*
X721210Y493563D01*
X721165Y493318D01*
X721113Y493074D01*
X721056Y492831D01*
X720992Y492590D01*
X720923Y492351D01*
X720847Y492113D01*
X720766Y491877D01*
X720679Y491643D01*
X720587Y491412D01*
X720488Y491183D01*
X720385Y490956D01*
X720275Y490732D01*
X720160Y490511D01*
X720040Y490292D01*
X719915Y490077D01*
X719784Y489864D01*
X719648Y489655D01*
X719507Y489450D01*
X719361Y489248D01*
X719210Y489049D01*
X719054Y488855D01*
X718893Y488664D01*
X718728Y488477D01*
X718558Y488294D01*
X718384Y488116D01*
X718206Y487942D01*
X718023Y487772D01*
X717836Y487607D01*
X717645Y487446D01*
X717451Y487290D01*
X717252Y487139D01*
X717050Y486993D01*
X716845Y486852D01*
X716636Y486716D01*
X716423Y486585D01*
X716208Y486460D01*
X715989Y486340D01*
X715768Y486225D01*
X715544Y486115D01*
X715317Y486012D01*
X715088Y485913D01*
X714857Y485821D01*
X714623Y485734D01*
X714387Y485653D01*
X714149Y485577D01*
X713910Y485508D01*
X713669Y485444D01*
X713426Y485387D01*
X713182Y485335D01*
X712937Y485290D01*
X712691Y485250D01*
X712444Y485216D01*
X712196Y485189D01*
X711947Y485168D01*
X711699Y485152D01*
X711449Y485143D01*
X711200Y485140D01*
X710951Y485143D01*
X710701Y485152D01*
X710453Y485168D01*
X710204Y485189D01*
X709956Y485216D01*
X709709Y485250D01*
X709463Y485290D01*
X709218Y485335D01*
X708974Y485387D01*
X708731Y485444D01*
X708490Y485508D01*
X708251Y485577D01*
X708013Y485653D01*
X707777Y485734D01*
X707543Y485821D01*
X707312Y485913D01*
X707083Y486012D01*
X706856Y486115D01*
X706632Y486225D01*
X706411Y486340D01*
X706192Y486460D01*
X705977Y486585D01*
X705764Y486716D01*
X705555Y486852D01*
X705350Y486993D01*
X705148Y487139D01*
X704949Y487290D01*
X704755Y487446D01*
X704564Y487607D01*
X704377Y487772D01*
X704194Y487942D01*
X704016Y488116D01*
X703842Y488294D01*
X703672Y488477D01*
X703507Y488664D01*
X703346Y488855D01*
X703190Y489049D01*
X703039Y489248D01*
X702893Y489450D01*
X702752Y489655D01*
X702616Y489864D01*
X702485Y490077D01*
X702360Y490292D01*
X702240Y490511D01*
X702125Y490732D01*
X702015Y490956D01*
X701912Y491183D01*
X701813Y491412D01*
X701721Y491643D01*
X701634Y491877D01*
X701553Y492113D01*
X701477Y492351D01*
X701408Y492590D01*
X701344Y492831D01*
X701287Y493074D01*
X701235Y493318D01*
X701190Y493563D01*
X701150Y493809D01*
X701116Y494056D01*
X701089Y494304D01*
X701068Y494553D01*
X701052Y494801D01*
X701043Y495051D01*
X701040Y495300D01*
M02*
